<svg id="Group_7691" data-name="Group 7691" xmlns="http://www.w3.org/2000/svg" xmlns:xlink="http://www.w3.org/1999/xlink" width="35" height="37.746" viewBox="0 0 35 37.746">
  <defs>
    <clipPath id="clip-path">
      <rect id="Rectangle_3705" data-name="Rectangle 3705" width="35" height="37.746" fill="#fe9a01"/>
    </clipPath>
  </defs>
  <g id="Group_7690" data-name="Group 7690" clip-path="url(#clip-path)">
    <path id="Path_5960" data-name="Path 5960" d="M197.58,169.334a4.378,4.378,0,0,1-.858-.322,2.094,2.094,0,0,1-1.047-1.895,2.774,2.774,0,0,1,.292-1.077q1.5-3.366,3-6.735c.137-.307.257-.621.413-.918.1-.192.044-.287-.116-.391q-.849-.548-1.69-1.109c-1.638-1.093-3.28-2.181-4.909-3.288a3.25,3.25,0,0,1-1.288-1.591,3.078,3.078,0,0,1,.212-2.353,17.848,17.848,0,0,1,1.655-2.736q1.714-2.56,3.438-5.112c.083-.123.156-.252.249-.4-.295-.066-.568-.131-.842-.189-.834-.179-1.67-.353-2.5-.534a.65.65,0,0,0-.524.146q-1.821,1.226-3.643,2.451-.589.4-1.18.787a1.827,1.827,0,0,1-2.281-.084,1.756,1.756,0,0,1,.133-2.764c1.144-.8,2.314-1.573,3.474-2.356.789-.533,1.576-1.069,2.369-1.6a2,2,0,0,1,1.6-.283c2.018.446,4.037.89,6.051,1.355a2.76,2.76,0,0,1,.839.38c.9.576,1.785,1.175,2.675,1.766a2.563,2.563,0,0,1,.939,1.137c.677,1.539,1.364,3.074,2.041,4.613a.725.725,0,0,0,.64.477c1.533.173,3.065.36,4.6.548a1.921,1.921,0,0,1,1.651,1.066,1.8,1.8,0,0,1-.795,2.345,2.225,2.225,0,0,1-1.147.145c-1.56-.171-3.118-.358-4.676-.541-.489-.058-.979-.115-1.467-.183a1.764,1.764,0,0,1-1.44-1.027c-.476-1.017-.928-2.046-1.392-3.069-.064-.141-.134-.279-.218-.453l-3.931,6.289c.4.274.782.543,1.171.81,1.389.954,2.78,1.9,4.166,2.861a2.318,2.318,0,0,1,1.041,1.4,2.251,2.251,0,0,1-.161,1.425q-1.353,3.059-2.72,6.111c-.519,1.165-1.037,2.331-1.562,3.493a2.223,2.223,0,0,1-1.749,1.374c-.017,0-.033.019-.049.029Z" transform="translate(-178.134 -131.588)" fill="#fe9a01"/>
    <path id="Path_5961" data-name="Path 5961" d="M14.789,568.455c-.408.6-.8,1.184-1.2,1.765-.294.426-.6.842-.894,1.272a2.192,2.192,0,0,1-1.9,1c-1.529.017-3.058.017-4.587.016-1.369,0-2.737,0-4.105-.027a2.142,2.142,0,0,1-2.077-1.816,2.062,2.062,0,0,1,1.963-2.388c.824-.005,1.648-.013,2.472-.016q2.132-.007,4.264-.009c.207,0,.415,0,.622.009a.642.642,0,0,0,.572-.3c.552-.776,1.111-1.547,1.668-2.319.041-.057.087-.112.149-.191a10.554,10.554,0,0,0,3.055,3.01" transform="translate(0 -543.418)" fill="#fe9a01"/>
    <path id="Path_5962" data-name="Path 5962" d="M604.184,3.489a3.47,3.47,0,0,1,6.939-.082,3.47,3.47,0,1,1-6.939.082" transform="translate(-580.648 -0.001)" fill="#fe9a01"/>
  </g>
</svg>
