<svg xmlns="http://www.w3.org/2000/svg" width="25" height="25" viewBox="0 0 25 25">
  <g id="Icon_ionic-ios-add-circle-outline" data-name="Icon ionic-ios-add-circle-outline" transform="translate(-3.375 -3.375)">
    <path id="Path_5974" data-name="Path 5974" d="M24.965,17.152H19.5V11.686a1.174,1.174,0,1,0-2.348,0v5.466H11.686a1.124,1.124,0,0,0-1.174,1.174A1.136,1.136,0,0,0,11.686,19.5h5.466v5.466a1.137,1.137,0,0,0,1.174,1.174A1.168,1.168,0,0,0,19.5,24.965V19.5h5.466a1.174,1.174,0,0,0,0-2.348Z" transform="translate(-2.45 -2.45)"/>
    <path id="Path_5975" data-name="Path 5975" d="M15.875,5.058a10.813,10.813,0,1,1-7.65,3.167,10.746,10.746,0,0,1,7.65-3.167m0-1.683a12.5,12.5,0,1,0,12.5,12.5,12.5,12.5,0,0,0-12.5-12.5Z"/>
  </g>
</svg>
