<svg id="Group_7703" data-name="Group 7703" xmlns="http://www.w3.org/2000/svg" xmlns:xlink="http://www.w3.org/1999/xlink" width="39" height="38.133" viewBox="0 0 39 38.133">
  <defs>
    <clipPath id="clip-path">
      <rect id="Rectangle_3697" data-name="Rectangle 3697" width="39" height="38.133" transform="translate(0)" fill="#fe9a01" stroke="#fe9a01" stroke-width="1"/>
    </clipPath>
  </defs>
  <g id="Group_7660" data-name="Group 7660" transform="translate(0 0)" clip-path="url(#clip-path)">
    <path id="Path_5941" data-name="Path 5941" d="M0,21.193a2.85,2.85,0,0,1,3.162-2.011c.737.043,1.479,0,2.218.012.587.009,1.025.251,1,.9-.026.594-.437.805-1,.8q-1.237-.015-2.475,0c-.909.011-1.18.271-1.184,1.157-.008,2.011,0,4.023,0,6.08H31.434q0-1.174,0-2.347c0-1.28-.013-2.56,0-3.84a.9.9,0,0,0-1.028-1.051l-2.475,0c-.561,0-.953-.22-.959-.832s.42-.849.953-.854A27.566,27.566,0,0,1,31,19.259a2.3,2.3,0,0,1,2.128,2.279c.033,3.411.011,6.822.011,10.234-1.586-.034-1.63-.079-1.767-1.823H1.712v.917q0,7.51,0,15.019c0,1.391.128,1.524,1.489,1.524q6.016,0,12.032,0c1.54,0,1.54,0,1.826,1.668-.309.014-.61.04-.911.041-4.324,0-8.648-.029-12.971.018A2.944,2.944,0,0,1,0,47.146Z" transform="translate(0.12 -15.786)" fill="#fe9a01" stroke="#fe9a01" stroke-width="1"/>
    <path id="Path_5942" data-name="Path 5942" d="M119.972,125.7a11.732,11.732,0,0,1-4.907-1.991,9.925,9.925,0,0,1-3.3-11.51,9.878,9.878,0,0,1,18.988,2.088,3.674,3.674,0,0,0,.145.485v2.049a2.259,2.259,0,0,0-.139.4,9.515,9.515,0,0,1-5.369,7.4,22.225,22.225,0,0,1-3.371,1.085Zm.959-18.132a8.17,8.17,0,0,0-8.281,8.085,8.346,8.346,0,1,0,8.281-8.085" transform="translate(-92.02 -87.677)" fill="#fe9a01" stroke="#fe9a01" stroke-width="1"/>
    <path id="Path_5943" data-name="Path 5943" d="M130.893,0a1.788,1.788,0,0,1,1.053,1.912c-.07,1.558-.014,3.121-.021,4.682a1.448,1.448,0,0,1-1.587,1.572,1.426,1.426,0,0,1-1.5-1.571c-.007-1.561.053-3.124-.023-4.682A1.8,1.8,0,0,1,129.869,0Z" transform="translate(-106.698 0.114)" fill="#fe9a01" stroke="#fe9a01" stroke-width="1"/>
    <path id="Path_5944" data-name="Path 5944" d="M48.882,0A1.826,1.826,0,0,1,49.93,1.923c-.069,1.557-.013,3.12-.022,4.68a1.461,1.461,0,0,1-1.6,1.562,1.417,1.417,0,0,1-1.48-1.582c-.006-1.56.05-3.123-.022-4.68A1.756,1.756,0,0,1,47.857,0Z" transform="translate(-38.688 0.114)" fill="#fe9a01" stroke="#fe9a01" stroke-width="1"/>
    <path id="Path_5945" data-name="Path 5945" d="M66.416,103.718c-2.207,0-2.207,0-2.205-2.185,0-1.257,0-1.257,1.274-1.258.793,0,1.585.01,2.378,0,.528-.008.783.2.758.756-.029.65-.032,1.3,0,1.953.029.573-.241.756-.763.739-.481-.016-.962,0-1.444,0" transform="translate(-53.127 -83.038)" fill="#fe9a01" stroke="#fe9a01" stroke-width="1"/>
    <path id="Path_5946" data-name="Path 5946" d="M26.26,144.594c2.225,0,2.225,0,2.223,2.262,0,1.19,0,1.19-1.18,1.192-.8,0-1.591-.021-2.386.007-.61.021-.92-.2-.856-.839.014-.141,0-.284,0-.426,0-2.2,0-2.2,2.2-2.2" transform="translate(-19.826 -119.791)" fill="#fe9a01" stroke="#fe9a01" stroke-width="1"/>
    <path id="Path_5947" data-name="Path 5947" d="M66.4,144.594c2.2,0,2.2,0,2.2,2.181,0,1.272,0,1.272-1.258,1.273-.794,0-1.589-.014-2.383,0-.539.012-.8-.211-.764-.757.01-.17,0-.34,0-.511,0-2.19,0-2.19,2.2-2.19" transform="translate(-53.111 -119.791)" fill="#fe9a01" stroke="#fe9a01" stroke-width="1"/>
    <path id="Path_5948" data-name="Path 5948" d="M26.248,103.663c-2.137,0-2.137,0-2.136-2.171,0-1.271,0-1.271,1.258-1.272.737,0,1.476.035,2.21-.009.756-.045,1.048.273.953,1a1.311,1.311,0,0,0,0,.17c0,2.282,0,2.282-2.284,2.282" transform="translate(-19.875 -82.983)" fill="#fe9a01" stroke="#fe9a01" stroke-width="1"/>
    <path id="Path_5949" data-name="Path 5949" d="M78.626,20.945c-.936,0-1.872,0-2.808,0-.525,0-.89-.192-.93-.758a.8.8,0,0,1,.881-.914c1.871-.027,3.743-.02,5.615-.009.555,0,.957.283.94.869s-.4.826-.976.816c-.907-.016-1.815,0-2.723-.005" transform="translate(-61.978 -15.854)" fill="#fe9a01" stroke="#fe9a01" stroke-width="1"/>
    <path id="Path_5950" data-name="Path 5950" d="M107.9,100.425c-.791.936-1.734,2.064-2.7,3.174-.107.124-.385.243-.495.187a.7.7,0,0,1-.336-.494,21.608,21.608,0,0,1,0-2.3c.012-.2.244-.538.384-.543,1.2-.044,2.4-.025,3.141-.025" transform="translate(-86.409 -83.161)" fill="#fe9a01" stroke="#fe9a01" stroke-width="1"/>
    <path id="Path_5951" data-name="Path 5951" d="M160.013,133.511c0,.568-.007,1.136,0,1.7a1.187,1.187,0,0,0,1.257,1.252c.738.012,1.477,0,2.215,0,.525,0,1,.1,1.02.748.017.708-.5.8-1.049.807q-.681.006-1.363,0a2.4,2.4,0,0,0-2.014.59,1.493,1.493,0,0,1-2.128-.269,1.638,1.638,0,0,1,.012-2.173,1.58,1.58,0,0,0,.487-1.352c-.023-1.05,0-2.1-.009-3.152-.005-.558.165-.978.8-.962.571.015.763.419.771.929.009.625,0,1.249,0,1.874" transform="translate(-130.524 -108.276)" fill="#fe9a01" stroke="#fe9a01" stroke-width="1"/>
  </g>
</svg>
