<svg id="calendar-4" xmlns="http://www.w3.org/2000/svg" width="17.069" height="16.443" viewBox="0 0 17.069 16.443">
  <path id="Path_5036" data-name="Path 5036" d="M0,170.835H17.069V159.4H0Zm12.655-9.771h1.766v1.766H12.655Zm0,3h1.766v1.766H12.655Zm0,3h1.766v1.766H12.655Zm-3.336-6h1.766v1.766H9.319Zm0,3h1.766v1.766H9.319Zm0,3h1.766v1.766H9.319Zm-3.336-6H7.749v1.766H5.984Zm0,3H7.749v1.766H5.984Zm0,3H7.749v1.766H5.984Zm-3.336-6H4.414v1.766H2.648Zm0,3H4.414v1.766H2.648Zm1.766,3v1.766H2.648v-1.766Z" transform="translate(0 -154.393)" fill="#707070"/>
  <path id="Path_5037" data-name="Path 5037" d="M17.069,39.391h-3v2h-1v-2H4v2H3v-2H0v3H17.069Z" transform="translate(0 -38.39)" fill="#707070"/>
  <rect id="Rectangle_2204" data-name="Rectangle 2204" width="1.073" height="1.073" transform="translate(2.806 0.055)" fill="#707070"/>
  <rect id="Rectangle_2205" data-name="Rectangle 2205" width="1.001" height="1.001" transform="translate(13.066 0)" fill="#707070"/>
</svg>
