<svg xmlns="http://www.w3.org/2000/svg" width="19.729" height="20.825" viewBox="0 0 19.729 20.825">
  <path id="Icon_material-location-city" data-name="Icon material-location-city" d="M17.653,12.865V6.288L14.365,3,11.076,6.288V8.48H4.5V23.825H24.229V12.865ZM8.884,21.633H6.692V19.441H8.884Zm0-4.384H6.692V15.057H8.884Zm0-4.384H6.692V10.672H8.884Zm6.576,8.769H13.269V19.441h2.192Zm0-4.384H13.269V15.057h2.192Zm0-4.384H13.269V10.672h2.192Zm0-4.384H13.269V6.288h2.192Zm6.576,13.153H19.845V19.441h2.192Zm0-4.384H19.845V15.057h2.192Z" transform="translate(-4.5 -3)" fill="#8e8e8e"/>
</svg>
