<svg xmlns="http://www.w3.org/2000/svg" width="18" height="14.4" viewBox="0 0 18 14.4">
  <path id="Icon_awesome-city" data-name="Icon awesome-city" d="M17.325,5.4H13.5V.675A.675.675,0,0,0,12.825,0H8.775A.675.675,0,0,0,8.1.675V2.7H6.3V.45A.45.45,0,0,0,5.85,0H5.4a.45.45,0,0,0-.45.45V2.7H3.15V.45A.45.45,0,0,0,2.7,0H2.25A.45.45,0,0,0,1.8.45V2.7H.675A.675.675,0,0,0,0,3.375V13.5a.9.9,0,0,0,.9.9H17.1a.9.9,0,0,0,.9-.9V6.075A.675.675,0,0,0,17.325,5.4ZM3.6,11.363a.337.337,0,0,1-.337.337H2.138a.337.337,0,0,1-.338-.337V10.238A.337.337,0,0,1,2.138,9.9H3.263a.337.337,0,0,1,.337.338Zm0-2.7A.337.337,0,0,1,3.263,9H2.138A.337.337,0,0,1,1.8,8.662V7.537A.337.337,0,0,1,2.138,7.2H3.263a.337.337,0,0,1,.337.338Zm0-2.7a.337.337,0,0,1-.337.338H2.138A.337.337,0,0,1,1.8,5.963V4.838A.337.337,0,0,1,2.138,4.5H3.263a.337.337,0,0,1,.337.338Zm3.6,5.4a.337.337,0,0,1-.337.337H5.738a.337.337,0,0,1-.338-.337V10.238A.337.337,0,0,1,5.738,9.9H6.863a.337.337,0,0,1,.337.338Zm0-2.7A.337.337,0,0,1,6.863,9H5.738A.337.337,0,0,1,5.4,8.662V7.537A.337.337,0,0,1,5.738,7.2H6.863a.337.337,0,0,1,.337.338Zm0-2.7a.337.337,0,0,1-.337.338H5.738A.337.337,0,0,1,5.4,5.963V4.838A.337.337,0,0,1,5.738,4.5H6.863a.337.337,0,0,1,.337.338Zm4.5,2.7A.337.337,0,0,1,11.363,9H10.238A.337.337,0,0,1,9.9,8.662V7.537a.337.337,0,0,1,.338-.338h1.125a.337.337,0,0,1,.337.338Zm0-2.7a.337.337,0,0,1-.337.338H10.238A.337.337,0,0,1,9.9,5.963V4.838a.337.337,0,0,1,.338-.338h1.125a.337.337,0,0,1,.337.338Zm0-2.7a.337.337,0,0,1-.337.337H10.238A.337.337,0,0,1,9.9,3.263V2.138a.337.337,0,0,1,.338-.338h1.125a.337.337,0,0,1,.337.338Zm4.5,8.1a.337.337,0,0,1-.337.337H14.737a.337.337,0,0,1-.337-.337V10.238a.337.337,0,0,1,.337-.338h1.125a.337.337,0,0,1,.337.338Zm0-2.7A.337.337,0,0,1,15.862,9H14.737a.337.337,0,0,1-.337-.338V7.537a.337.337,0,0,1,.337-.338h1.125a.337.337,0,0,1,.337.338Z" fill="#8e8e8e"/>
</svg>
