<svg id="Group_7688" data-name="Group 7688" xmlns="http://www.w3.org/2000/svg" xmlns:xlink="http://www.w3.org/1999/xlink" width="42" height="45.348" viewBox="0 0 42 45.348">
  <defs>
    <clipPath id="clip-path">
      <rect id="Rectangle_3704" data-name="Rectangle 3704" width="42" height="45.348" fill="#fe9a01"/>
    </clipPath>
  </defs>
  <g id="Group_7687" data-name="Group 7687" transform="translate(0 0)" clip-path="url(#clip-path)">
    <path id="Path_5958" data-name="Path 5958" d="M28.27,8.534H23.04c-3.329,0-5.1-1.591-5-4.909.022-.707,1.215-1.716,2.063-2A42.447,42.447,0,0,1,26.657.109a11.41,11.41,0,0,1,3.676.1c2.023.348,3.993,1.124,6.021,1.292,2.3.191,2.8,1.067,2.229,3.2-.72,2.7-1.768,4.531-5.094,3.9a28.319,28.319,0,0,0-5.219-.056" transform="translate(-7.403 -0.001)" fill="#fe9a01"/>
    <path id="Path_5959" data-name="Path 5959" d="M32.977,23.38c-1.857-2.219-3.852-3.549-6.922-3.181a24.542,24.542,0,0,1-6.965-.009C13.327,19.2,9.634,21.8,6.536,26.311,2.914,31.589-.187,36.961.009,43.635c.17,5.83,4.182,9.812,9.944,9.83,3.685.012,7.37,0,11.054,0,3.588,0,7.194-.23,10.76.051,6.345.5,10.3-5.382,10.232-10.215-.1-8-4.154-14.105-9.022-19.923m-7.71,16.734a21.039,21.039,0,0,1-2.835,1.242c1.354,2.061,2.707,4.122,4.2,6.39-3.289.7-5.576.32-7.145-2.809a96.414,96.414,0,0,0-5.506-8.589c2.9,0,5.209.078,7.509-.054.588-.034,1.138-.733,1.706-1.125-.574-.387-1.13-1.078-1.723-1.109-2.393-.128-4.8-.053-7.32-.053V29.424a87.574,87.574,0,0,1,9.179.075,5.189,5.189,0,0,1,4.585,4.626,5.518,5.518,0,0,1-2.645,5.988" transform="translate(0 -8.201)" fill="#fe9a01"/>
  </g>
</svg>
