<svg xmlns="http://www.w3.org/2000/svg" width="16.783" height="14.915" viewBox="0 0 16.783 14.915">
  <path id="Icon_awesome-edit" data-name="Icon awesome-edit" d="M11.731,2.428l2.628,2.628a.285.285,0,0,1,0,.4L8,11.822l-2.7.3a.567.567,0,0,1-.626-.626l.3-2.7,6.364-6.364A.285.285,0,0,1,11.731,2.428Zm4.72-.667L15.029.339a1.14,1.14,0,0,0-1.608,0L12.389,1.371a.285.285,0,0,0,0,.4L15.017,4.4a.285.285,0,0,0,.4,0l1.031-1.031a1.14,1.14,0,0,0,0-1.608Zm-5.262,8.33v2.966H1.865V3.734h6.7a.358.358,0,0,0,.248-.1L9.974,2.466a.35.35,0,0,0-.248-.6H1.4A1.4,1.4,0,0,0,0,3.267V13.524a1.4,1.4,0,0,0,1.4,1.4H11.655a1.4,1.4,0,0,0,1.4-1.4v-4.6a.35.35,0,0,0-.6-.248L11.291,9.844A.358.358,0,0,0,11.189,10.091Z" transform="translate(0 -0.007)" fill="#c8940a"/>
</svg>
