<svg xmlns="http://www.w3.org/2000/svg" width="15" height="10.125" viewBox="0 0 15 10.125">
  <path id="Icon_zocial-email" data-name="Icon zocial-email" d="M.072,13.3V4.965q0-.014.043-.275l4.9,4.195L.13,13.586A1.226,1.226,0,0,1,.072,13.3ZM.723,4.111a.623.623,0,0,1,.246-.043H14.175a.819.819,0,0,1,.26.043L9.518,8.321l-.651.521L7.579,9.9,6.292,8.841l-.651-.521ZM.737,14.15,5.67,9.42l1.909,1.548L9.489,9.42l4.932,4.73a.694.694,0,0,1-.246.043H.969a.655.655,0,0,1-.231-.043Zm9.4-5.265L15.029,4.69a.863.863,0,0,1,.043.275V13.3a1.109,1.109,0,0,1-.043.289Z" transform="translate(-0.072 -4.068)" fill="#c8940a"/>
</svg>
