<svg xmlns="http://www.w3.org/2000/svg" xmlns:xlink="http://www.w3.org/1999/xlink" width="37" height="37" viewBox="0 0 37 37">
  <defs>
    <clipPath id="clip-path">
      <rect id="Rectangle_3698" data-name="Rectangle 3698" width="27.247" height="21.236" fill="#4869a7"/>
    </clipPath>
  </defs>
  <g id="Group_7770" data-name="Group 7770" transform="translate(-2131 -3707)">
    <g id="Ellipse_447" data-name="Ellipse 447" transform="translate(2131 3707)" fill="#fff" stroke="#d4ddee" stroke-width="1">
      <circle cx="18.5" cy="18.5" r="18.5" stroke="none"/>
      <circle cx="18.5" cy="18.5" r="18" fill="none"/>
    </g>
    <g id="Group_7663" data-name="Group 7663" transform="translate(2135.876 3711.815)">
      <g id="Group_7662" data-name="Group 7662" clip-path="url(#clip-path)">
        <path id="Path_5952" data-name="Path 5952" d="M26.564,19.566a.568.568,0,0,1,0-.381c.187-.469.4-.928.6-1.391.027-.062.044-.127.084-.246H23.79l-.005-.076c.105-.021.212-.034.315-.063.156-.045.3-.137.286-.311-.007-.141-.039-.342-.133-.4a.594.594,0,0,0-.442.01,1.792,1.792,0,0,0-.394.271,4.885,4.885,0,0,0-.379-.4c-.191-.163-.191-.31-.079-.535a10.163,10.163,0,0,0,1-5.913,10.387,10.387,0,0,0-4.474-7.412,10.3,10.3,0,0,0-4.666-1.8c-.132-.018-.255,0-.283.147-.033.17.089.216.231.237.222.033.444.066.664.109a10.206,10.206,0,0,1,7.265,14.305c-.042.09-.092.176-.154.294a2.378,2.378,0,0,0-.211-.249.39.39,0,0,1-.081-.526,9.118,9.118,0,0,0,.669-5.407,9.271,9.271,0,0,0-6.487-7.541c-.113-.039-.29-.164-.35.026s.156.185.272.222a8.7,8.7,0,0,1,4.1,2.663,9.24,9.24,0,0,1,1.938,8.885c-.11.4-.282.793-.434,1.212a1.393,1.393,0,0,1-.135-.1,1.345,1.345,0,0,1-.141-.164,5.016,5.016,0,0,1-.884-2.558.861.861,0,0,0-.679-.924c-.248-.077-.513-.1-.765-.164a.428.428,0,0,1-.226-.741c.079-.092.2-.157.252-.259a2.125,2.125,0,0,0,.171-.467.53.53,0,0,0-.009-.23c-.027-.139-.077-.274-.1-.413a1.146,1.146,0,0,0-.438-.921c-.043-.028-.052-.136-.047-.205a.53.53,0,1,0-1.051-.026.363.363,0,0,1-.109.253.978.978,0,0,0-.37.626c-.043.266-.077.534-.11.8a.423.423,0,0,0,.027.139c.038.159.082.317.113.477.024.121.032.245.047.368l.047,0,.037-.459c.131.169.243.3.344.447a.4.4,0,0,1-.242.619c-.157.033-.315.056-.474.081a.865.865,0,0,0-.723.782,4.872,4.872,0,0,1-.8,2.561,12.986,12.986,0,0,1-.924,1.114,8.449,8.449,0,0,1,.1-1.191,33.478,33.478,0,0,1,.555-4.138A1.629,1.629,0,0,0,15.014,8.9a1.141,1.141,0,0,1-.184-.28,2.907,2.907,0,0,1-.144-2.2.331.331,0,0,1,.1-.156c.273-.237.368-.5.187-.758a5.629,5.629,0,0,0,.368-.9c.139-.649.244-1.307.326-1.966a.772.772,0,0,0-.165-.506,2.655,2.655,0,0,0-.559-.522c-.332-.238-.681-.453-1.03-.666a.354.354,0,0,1-.2-.368,1.434,1.434,0,0,0-.062-.472A.2.2,0,0,0,13.3.121a1.519,1.519,0,0,0-.077.495.359.359,0,0,1-.187.352c-.484.342-.963.692-1.44,1.043a.759.759,0,0,0-.274.836c.068.345.112.7.171,1.042a2.657,2.657,0,0,0,.483,1.483A.19.19,0,0,1,12,5.527a.727.727,0,0,0,.2.684.709.709,0,0,1,.154.235A4.769,4.769,0,0,1,12.546,8.2a1.56,1.56,0,0,1-.869,1.346,8.93,8.93,0,0,0-2.107,1.5A.658.658,0,0,0,9.6,12.185c.629.469,1.28.909,1.919,1.363.319.227.644.447.948.693a9.212,9.212,0,0,1,.715.669c.173.174.433.346.47.551a7.41,7.41,0,0,1,.022,1.283c-.485-.216-.646-.211-.749.017-.135.3-.007.478.52.683-.126.106-.225.255-.351.283a11.427,11.427,0,0,1-1.208.193.467.467,0,0,1-.353-.077,4.013,4.013,0,0,0-1.171-.831.713.713,0,0,1-.449-.57,1.079,1.079,0,0,0-.159-.373,1.6,1.6,0,0,0-1-.78.619.619,0,0,1-.505-.619,4.936,4.936,0,0,1,.076-1.095c.116-.547.3-1.08.445-1.622a.623.623,0,0,0,.019-.329,7.026,7.026,0,0,1-.213-2.144,1.354,1.354,0,0,1,.06-.3c.045-.193.087-.387.142-.577a.372.372,0,0,1,.114-.2A.62.62,0,0,0,9,7.327a.227.227,0,0,1-.07-.16A3.981,3.981,0,0,1,9.938,4.635a.373.373,0,0,0,.055-.1c-.028-.012-.05-.026-.055-.022-.18.144-.432.134-.611.318-.064.066-.217.094-.276.219-.132.283-.272.563-.4.849-.229.519-.45,1.042-.681,1.58-.078-.021-.162-.046-.246-.065a.856.856,0,0,0-.774.148c-.194.158-.4.315-.292.619.012.035-.037.087-.045.134-.015.085-.019.172-.029.258-.021.176-.041.353-.064.529-.006.052-.039.141-.024.149.231.129.184.4.3.578A.351.351,0,0,0,7.027,10c.206.006.255.122.278.289a.593.593,0,0,1-.208.562c-.258.214-.532.41-.808.6-.518.359-.55.519-.2,1.034a3.849,3.849,0,0,1,.321.535,1.8,1.8,0,0,1,.167.547c.077.725.128,1.452.2,2.177.016.157-.047.208-.173.26a5.615,5.615,0,0,0-.742.34c-.195.115-.282.07-.39-.111A8.954,8.954,0,0,1,4.264,9.9a9.177,9.177,0,0,1,6.218-7.332c.116-.043.332-.041.269-.227s-.238-.058-.353-.019A9.12,9.12,0,0,0,6.157,5.2a9.4,9.4,0,0,0-1.55,9.88c.2.52.489,1.006.747,1.53l-.457.3c-.058-.086-.11-.155-.154-.228A10.192,10.192,0,0,1,11.187,1.478c.343-.077.693-.126,1.04-.185.131-.022.246-.07.225-.224S12.311.891,12.178.9l-.072.009A10.2,10.2,0,0,0,5.438,4.535,10.331,10.331,0,0,0,3.715,15.509c.218.564.536,1.09.814,1.645a1.307,1.307,0,0,1-.978.416c-1.082-.035-2.165-.012-3.248-.01-.092,0-.183.014-.3.024.041.106.066.18.1.252.186.426.365.856.564,1.276a.565.565,0,0,1,0,.523c-.2.437-.384.882-.572,1.325-.032.076-.054.157-.087.255.1.008.162.017.224.017.754,0,1.508-.005,2.262,0,.117,0,.187-.021.225-.079.041.045.114.062.234.062,1.653,0,3.307.013,4.96.016q2.924.005,5.847,0H24.514c.076,0,.135,0,.181,0a.619.619,0,0,0,.073,0c.754-.008,1.508,0,2.262,0a1.9,1.9,0,0,0,.208-.025c-.043-.118-.074-.215-.114-.309-.187-.443-.386-.882-.559-1.33m-4.847-3.271a2.333,2.333,0,0,1,.4.441c.028.053-.112.253-.217.309-.229.122-.339-.119-.521-.227l.338-.523m-1.793-.577a12.693,12.693,0,0,1,.158-1.3.95.95,0,0,1,.125-.258l.071.006a7.169,7.169,0,0,1,.3.67,2.044,2.044,0,0,0,.738,1.117c.156.108.182.221.061.4-.256.369-.244.377-.691.294-.76-.141-.787-.154-.757-.92m-4.219.426c.055-.047.107-.1.163-.141a2.361,2.361,0,0,0,.857-1.266,3.273,3.273,0,0,1,.194-.451L17,14.29c.056.414.141.827.159,1.243a5.5,5.5,0,0,1-.091,1,.263.263,0,0,1-.17.182c-.636.04-1.274.063-1.965.092l.775-.662m-3.5-12.3a10.525,10.525,0,0,1-.244-1.293c-.012-.089.089-.216.17-.292.439-.409.889-.806,1.379-1.248.394.371.794.746,1.193,1.122a1.038,1.038,0,0,1,.226,1.047c-.061.3-.175.6-.258.9a.207.207,0,0,1-.263.172c-.055-.009-.111-.007-.166-.018-.158-.032-.322-.056-.375-.248s.076-.308.175-.444c.146-.2.3-.4.182-.682-.051-.121-.024-.274-.07-.4a5.266,5.266,0,0,0-.243-.479.67.67,0,0,1-.086-.229.4.4,0,0,0-.4-.418.423.423,0,0,0-.389.437.512.512,0,0,1-.085.194,2.438,2.438,0,0,0-.267.489,2.07,2.07,0,0,0,.1,1.245l.027-.246a3.629,3.629,0,0,1,.269.338.317.317,0,0,1-.175.41c-.449.151-.579.1-.7-.358M13.67,14.957l-.085.021c-.1-.313-.216-.622-.294-.94-.06-.243-.16-.344-.406-.34a.3.3,0,0,1-.2-.073c-.473-.5-.939-1.007-1.406-1.512-.145-.157-.289-.315-.45-.49l2.868-1.409c.1,1.635-.038,3.189-.022,4.744M7.639,17.091a6,6,0,0,0,1.289,1.014H8.754l-.322-.257a.44.44,0,0,0-.591,0,.273.273,0,0,1-.168.068c-.295-.053-.587-.12-.936-.195l.9-.634" transform="translate(0 0)" fill="#4869a7"/>
      </g>
    </g>
  </g>
</svg>
