<svg xmlns="http://www.w3.org/2000/svg" xmlns:xlink="http://www.w3.org/1999/xlink" width="37" height="37" viewBox="0 0 37 37">
  <defs>
    <clipPath id="clip-path">
      <rect id="Rectangle_3744" data-name="Rectangle 3744" width="20.086" height="22.456" fill="#678a95"/>
    </clipPath>
  </defs>
  <g id="Group_14971" data-name="Group 14971" transform="translate(-2131 -3707)">
    <g id="Ellipse_447" data-name="Ellipse 447" transform="translate(2131 3707)" fill="#fff" stroke="#c5e5ef" stroke-width="1">
      <circle cx="18.5" cy="18.5" r="18.5" stroke="none"/>
      <circle cx="18.5" cy="18.5" r="18" fill="none"/>
    </g>
    <g id="Group_14960" data-name="Group 14960" transform="translate(2139.457 3713.133)">
      <g id="Group_14959" data-name="Group 14959" clip-path="url(#clip-path)">
        <path id="Path_6572" data-name="Path 6572" d="M150.842,9.835v2.673h-.5l-.473-1.718c-.238-.865-.472-1.731-.717-2.594a.583.583,0,0,1,.042-.446q1.1-2.268,2.19-4.542c.03-.063.058-.128.1-.213-.056-.007-.094-.016-.132-.017-.385-.011-.5-.122-.5-.5,0-.086,0-.171,0-.257a.379.379,0,0,1,.373-.389.144.144,0,0,1,.043,0c.414.094.625-.116.794-.471.192-.4.441-.781.667-1.169.15-.257.288-.256.441.007.286.493.574.985.853,1.482a.24.24,0,0,0,.27.151.264.264,0,0,1,.043,0c.664,0,.724.062.709.718-.006.27-.1.363-.451.458l.737,1.774c.42,1.013.842,2.025,1.258,3.04a.475.475,0,0,1,.031.282c-.366,1.346-.74,2.691-1.112,4.036-.114.413-.114.413-.589.364V9.835Z" transform="translate(-142.746 -0.001)" fill="#678a95"/>
        <path id="Path_6573" data-name="Path 6573" d="M56.04,362.913l.665,2.585H40.067l.664-2.585Z" transform="translate(-38.352 -347.382)" fill="#678a95"/>
        <path id="Path_6574" data-name="Path 6574" d="M31.319,96.966l1.51,5.507H27.252l1.723-5.507c-.229,0-.428,0-.627,0a.385.385,0,0,1-.425-.4c-.006-.085,0-.171,0-.256.007-.356.142-.512.5-.478a.6.6,0,0,0,.671-.394c.213-.434.476-.843.72-1.261.144-.246.287-.244.432.006.286.493.575.984.852,1.481a.259.259,0,0,0,.286.161,2.233,2.233,0,0,1,.278,0c.322,0,.464.146.469.473,0,.078,0,.157,0,.235a.4.4,0,0,1-.436.437c-.113,0-.227,0-.369,0" transform="translate(-26.086 -89.967)" fill="#678a95"/>
        <path id="Path_6575" data-name="Path 6575" d="M312.146,102.513l1.723-5.507c-.131,0-.235,0-.338,0a.376.376,0,0,1-.386-.374c0-.014,0-.028,0-.043-.014-.508-.037-.777.7-.725a.326.326,0,0,0,.35-.2c.267-.487.551-.966.829-1.446.143-.246.289-.247.431,0,.29.5.581,1,.864,1.5a.236.236,0,0,0,.251.146,2.777,2.777,0,0,1,.364,0,.382.382,0,0,1,.4.4c.016.545.037.782-.705.741-.127-.007-.255,0-.417,0l1.509,5.507Z" transform="translate(-298.787 -90.007)" fill="#678a95"/>
        <path id="Path_6576" data-name="Path 6576" d="M17.23,444.175H8.116c-.467,0-.593-.128-.593-.6,0-.143,0-.285,0-.428a.44.44,0,0,1,.468-.469c.078,0,.157,0,.235,0H26.37c.44,0,.58.138.581.571,0,.171.006.343,0,.513a.417.417,0,0,1-.41.41c-.071,0-.143,0-.214,0H17.23" transform="translate(-7.2 -423.733)" fill="#678a95"/>
        <path id="Path_6577" data-name="Path 6577" d="M10.034,313.1H.645c-.47,0-.642-.172-.644-.645,0-.215-.026-.451.183-.582a.864.864,0,0,1,.437-.125q3.86-.011,7.721-.006,5.529,0,11.057,0c.248,0,.494.021.6.275a.961.961,0,0,1-.029.864.521.521,0,0,1-.5.221q-2.994,0-5.989,0H10.034" transform="translate(0 -298.4)" fill="#678a95"/>
        <path id="Path_6578" data-name="Path 6578" d="M25.3,497.1H43.2c0,.312.013.617-.005.919a.281.281,0,0,1-.294.258c-.128.008-.257,0-.385,0H25.824c-.449,0-.519-.07-.519-.52,0-.213,0-.427,0-.661" transform="translate(-24.222 -475.822)" fill="#678a95"/>
      </g>
    </g>
  </g>
</svg>
