<svg xmlns="http://www.w3.org/2000/svg" width="37" height="37" viewBox="0 0 37 37">
  <g id="Group_7769" data-name="Group 7769" transform="translate(-2131 -3707)">
    <g id="Ellipse_447" data-name="Ellipse 447" transform="translate(2131 3707)" fill="#fff" stroke="#e3c997" stroke-width="1">
      <circle cx="18.5" cy="18.5" r="18.5" stroke="none"/>
      <circle cx="18.5" cy="18.5" r="18" fill="none"/>
    </g>
    <g id="Group_7702" data-name="Group 7702" transform="translate(2138.725 3713.333)">
      <path id="Path_1229" data-name="Path 1229" d="M4.648,21.6a7.38,7.38,0,0,1-.906-.262,3.152,3.152,0,0,1-1.4-4.634c.029-.045.058-.091.1-.163H.544c.078-.072.119-.113.163-.15.671-.567,1.383-1.092,2-1.708a7.612,7.612,0,0,0,2.232-4.549A4.366,4.366,0,0,1,8.423,6.4a4.691,4.691,0,0,1,.8-.065c.548-.01,1.1,0,1.648-.016a3.223,3.223,0,0,1-2.113-1.3A3.083,3.083,0,0,1,8.2,2.6a3.165,3.165,0,0,1,6.27.318,3.222,3.222,0,0,1-2.7,3.411c.316,0,.633-.011.948,0a8.887,8.887,0,0,1,1.676.113,4.209,4.209,0,0,1,3.2,3.263c.152.568.2,1.165.37,1.727a8.112,8.112,0,0,0,2.9,4.117c.4.311.788.629,1.222.976H20.2a1.5,1.5,0,0,0,.072.147,3.159,3.159,0,0,1-2.15,4.889.465.465,0,0,0-.094.037Zm9.5-11.7c.3.636.564,1.209.836,1.778A6.275,6.275,0,0,0,18.109,14.8c.078.036.159.065.263.108a.468.468,0,0,0-.03-.078A9.691,9.691,0,0,1,16.4,10.184a2.994,2.994,0,0,0-3.053-2.6q-2.034.045-4.07,0a3.032,3.032,0,0,0-3.062,2.664,9.352,9.352,0,0,1-1.8,4.414c-.061.081-.121.162-.188.252.035,0,.05.009.061,0a5.96,5.96,0,0,0,3.5-3.012q.351-.731.7-1.462c.024-.049.056-.094.107-.179.169.989.328,1.923.487,2.858q.346,2.035.69,4.071a.327.327,0,0,0,.2.268c.407.206.809.422,1.209.643a.261.261,0,0,0,.288,0c.4-.22.8-.436,1.209-.643a.335.335,0,0,0,.2-.269q.445-2.552.9-5.1c.126-.711.253-1.423.39-2.194M10.086,20.294l.017.038c2.552,0,5.1.024,7.656-.01a1.879,1.879,0,0,0,1.6-2.7,1.75,1.75,0,0,0-2.308-.9c-.175.072-.353.14-.521.226q-2.588,1.323-5.172,2.653c-.428.221-.846.461-1.269.692m-.1-1.39c-.454-.239-.857-.466-1.273-.668-1.078-.524-2.158-1.045-3.246-1.548a1.393,1.393,0,0,0-.669-.132A1.883,1.883,0,0,0,3.09,18.34a1.849,1.849,0,0,0,1.559,1.949c.559.077,1.137.008,1.7.054a2.94,2.94,0,0,0,1.889-.472c.547-.349,1.136-.633,1.746-.967m3.227-15.74a1.9,1.9,0,1,0-1.909,1.9,1.9,1.9,0,0,0,1.909-1.9m3.493,12.315a7.9,7.9,0,0,1-1.945-1.757l-.512,2.9,2.457-1.142M8.39,16.628l-.439-2.575-1.864,1.5,2.3,1.078" transform="translate(-0.544 0.001)" fill="#d28f01"/>
    </g>
  </g>
</svg>
