<svg xmlns="http://www.w3.org/2000/svg" xmlns:xlink="http://www.w3.org/1999/xlink" width="37" height="37" viewBox="0 0 37 37">
  <defs>
    <clipPath id="clip-path">
      <rect id="Rectangle_3697" data-name="Rectangle 3697" width="17.682" height="17.289" transform="translate(0)" fill="#b76f96" stroke="#b76f96" stroke-width="0.2"/>
    </clipPath>
  </defs>
  <g id="Group_14968" data-name="Group 14968" transform="translate(-2131 -3707)">
    <g id="Ellipse_447" data-name="Ellipse 447" transform="translate(2131 3707)" fill="#fff" stroke="#eed4e2" stroke-width="1">
      <circle cx="18.5" cy="18.5" r="18.5" stroke="none"/>
      <circle cx="18.5" cy="18.5" r="18" fill="none"/>
    </g>
    <g id="Group_7703" data-name="Group 7703" transform="translate(2140.659 3716.855)">
      <g id="Group_7660" data-name="Group 7660" transform="translate(0 0)" clip-path="url(#clip-path)">
        <path id="Path_5941" data-name="Path 5941" d="M0,20.089a1.292,1.292,0,0,1,1.434-.912c.334.02.67,0,1.006.005.266,0,.465.114.452.408-.012.269-.2.365-.453.362q-.561-.007-1.122,0c-.412.005-.535.123-.537.524,0,.912,0,1.824,0,2.757H14.252q0-.532,0-1.064c0-.58-.006-1.161,0-1.741a.41.41,0,0,0-.466-.477l-1.122,0c-.254,0-.432-.1-.435-.377s.19-.385.432-.387a12.5,12.5,0,0,1,1.39.026,1.04,1.04,0,0,1,.965,1.033c.015,1.546.005,3.093.005,4.64-.719-.016-.739-.036-.8-.827H.776v.416q0,3.4,0,6.81c0,.631.058.691.675.691H6.907c.7,0,.7,0,.828.756-.14.007-.277.018-.413.018-1.96,0-3.921-.013-5.881.008A1.335,1.335,0,0,1,0,31.856Z" transform="translate(0.054 -17.637)" fill="#b76f96" stroke="#b76f96" stroke-width="0.2"/>
        <path id="Path_5942" data-name="Path 5942" d="M115.129,114.858a5.319,5.319,0,0,1-2.225-.9,4.5,4.5,0,0,1-1.5-5.218,4.479,4.479,0,0,1,8.609.947,1.665,1.665,0,0,0,.066.22v.929a1.023,1.023,0,0,0-.063.179,4.314,4.314,0,0,1-2.434,3.354,10.077,10.077,0,0,1-1.528.492Zm.435-8.221a3.7,3.7,0,0,0-3.754,3.666,3.784,3.784,0,1,0,3.754-3.666" transform="translate(-102.456 -97.62)" fill="#b76f96" stroke="#b76f96" stroke-width="0.2"/>
        <path id="Path_5943" data-name="Path 5943" d="M129.756,0a.811.811,0,0,1,.478.867c-.032.706-.006,1.415-.01,2.123a.657.657,0,0,1-.72.713.646.646,0,0,1-.679-.712c0-.708.024-1.417-.01-2.123A.816.816,0,0,1,129.291,0Z" transform="translate(-118.786 0.051)" fill="#b76f96" stroke="#b76f96" stroke-width="0.2"/>
        <path id="Path_5944" data-name="Path 5944" d="M47.743,0a.828.828,0,0,1,.475.872c-.031.706-.006,1.415-.01,2.122a.663.663,0,0,1-.727.708.643.643,0,0,1-.671-.717c0-.707.023-1.416-.01-2.122A.8.8,0,0,1,47.278,0Z" transform="translate(-43.121 0.051)" fill="#b76f96" stroke="#b76f96" stroke-width="0.2"/>
        <path id="Path_5945" data-name="Path 5945" d="M65.21,101.835c-1,0-1,0-1-.991,0-.57,0-.57.578-.57.359,0,.719,0,1.078,0,.239,0,.355.089.344.343-.013.295-.015.591,0,.885.013.26-.109.343-.346.335-.218-.007-.436,0-.655,0" transform="translate(-59.185 -92.458)" fill="#b76f96" stroke="#b76f96" stroke-width="0.2"/>
        <path id="Path_5946" data-name="Path 5946" d="M25.053,144.594c1.009,0,1.009,0,1.008,1.025,0,.539,0,.54-.535.54-.361,0-.721-.009-1.082,0-.276.01-.417-.09-.388-.38.006-.064,0-.129,0-.193,0-1,0-1,1-1" transform="translate(-22.136 -133.349)" fill="#b76f96" stroke="#b76f96" stroke-width="0.2"/>
        <path id="Path_5947" data-name="Path 5947" d="M65.192,144.594c1,0,1,0,1,.989,0,.577,0,.577-.57.577-.36,0-.72-.006-1.08,0-.244.006-.361-.1-.347-.343,0-.077,0-.154,0-.231,0-.993,0-.993,1-.993" transform="translate(-59.167 -133.349)" fill="#b76f96" stroke="#b76f96" stroke-width="0.2"/>
        <path id="Path_5948" data-name="Path 5948" d="M25.08,101.774c-.969,0-.969,0-.968-.984,0-.576,0-.576.57-.577.334,0,.669.016,1,0s.475.124.432.454a.594.594,0,0,0,0,.077c0,1.035,0,1.035-1.036,1.035" transform="translate(-22.191 -92.397)" fill="#b76f96" stroke="#b76f96" stroke-width="0.2"/>
        <path id="Path_5949" data-name="Path 5949" d="M76.581,20.022c-.424,0-.849,0-1.273,0-.238,0-.4-.087-.422-.344a.361.361,0,0,1,.4-.414c.848-.012,1.7-.009,2.546,0,.252,0,.434.128.426.394s-.18.374-.442.37c-.411-.007-.823,0-1.234,0" transform="translate(-69.033 -17.714)" fill="#b76f96" stroke="#b76f96" stroke-width="0.2"/>
        <path id="Path_5950" data-name="Path 5950" d="M105.959,100.423c-.359.425-.786.936-1.223,1.439-.049.056-.174.11-.224.085a.316.316,0,0,1-.153-.224,9.8,9.8,0,0,1,0-1.042c.005-.089.111-.244.174-.246.544-.02,1.09-.011,1.424-.011" transform="translate(-96.214 -92.595)" fill="#b76f96" stroke="#b76f96" stroke-width="0.2"/>
        <path id="Path_5951" data-name="Path 5951" d="M158.664,131.978c0,.257,0,.515,0,.772a.538.538,0,0,0,.57.568c.335.006.669,0,1,0,.238,0,.455.044.462.339.008.321-.225.364-.476.366q-.309,0-.618,0a1.086,1.086,0,0,0-.913.267.677.677,0,0,1-.965-.122.743.743,0,0,1,.005-.985.716.716,0,0,0,.221-.613c-.01-.476,0-.953,0-1.429,0-.253.075-.443.362-.436.259.007.346.19.349.421,0,.283,0,.566,0,.85" transform="translate(-145.294 -120.537)" fill="#b76f96" stroke="#b76f96" stroke-width="0.2"/>
      </g>
    </g>
  </g>
</svg>
