<svg xmlns="http://www.w3.org/2000/svg" xmlns:xlink="http://www.w3.org/1999/xlink" width="37" height="37" viewBox="0 0 37 37">
  <defs>
    <clipPath id="clip-path">
      <rect id="Rectangle_3746" data-name="Rectangle 3746" width="25.842" height="17.394" fill="#627b49"/>
    </clipPath>
  </defs>
  <g id="Group_14970" data-name="Group 14970" transform="translate(-2131 -3707)">
    <g id="Ellipse_447" data-name="Ellipse 447" transform="translate(2131 3707)" fill="#fff" stroke="#c1e69c" stroke-width="1">
      <circle cx="18.5" cy="18.5" r="18.5" stroke="none"/>
      <circle cx="18.5" cy="18.5" r="18" fill="none"/>
    </g>
    <g id="Group_14964" data-name="Group 14964" transform="translate(2139.579 3717.997)">
      <g id="Group_14963" data-name="Group 14963" transform="translate(-2 -2)" clip-path="url(#clip-path)">
        <path id="Path_6581" data-name="Path 6581" d="M0,41.444c.152-.664.27-1.338.462-1.991a10.33,10.33,0,0,1,2.143-3.926l2.7,2.763a7.318,7.318,0,0,0-1.44,4.377H0V41.444m.482.724c.922,0,1.77.012,2.617-.014a.468.468,0,0,0,.334-.305,7.89,7.89,0,0,1,1.3-3.549L2.661,36.2a10.415,10.415,0,0,0-2.18,5.97" transform="translate(1.794 -29.76)" fill="#627b49"/>
        <path id="Path_6582" data-name="Path 6582" d="M103.719,4.174V.4c1.851-.354,5.907,1.4,7.282,3.1l-2.667,2.728a7.5,7.5,0,0,0-4.614-2.051m6.753-.7-2.808-1.818-1.3,2.632,2.013,1.276,2.091-2.089" transform="translate(-90.327 1.482)" fill="#627b49"/>
        <path id="Path_6583" data-name="Path 6583" d="M37.345,0V3.859a7.493,7.493,0,0,0-4.6,2.038l-2.7-2.749A11.16,11.16,0,0,1,37.345,0m-.457.52a10.426,10.426,0,0,0-6.144,2.633L32.8,5.228a8.031,8.031,0,0,1,4.093-1.8Z" transform="translate(-24.895 1.794)" fill="#627b49"/>
        <path id="Path_6584" data-name="Path 6584" d="M154.088,35.416a10.909,10.909,0,0,1,2.6,7.11h-3.857a7.387,7.387,0,0,0-1.471-4.343l2.726-2.767m2.124,6.651a10.486,10.486,0,0,0-2.181-5.957l-2.067,2.1a7.667,7.667,0,0,1,1.292,3.553.425.425,0,0,0,.292.29c.866.023,1.733.013,2.664.013" transform="translate(-132.642 -29.661)" fill="#627b49"/>
        <path id="Path_6585" data-name="Path 6585" d="M93.952,47.371q-1.4,3.619-2.8,7.238a1.259,1.259,0,0,1-1.342.91,2.5,2.5,0,0,1-1.4-.84,1.216,1.216,0,0,1,.133-1.611c1.755-1.947,3.532-3.874,5.3-5.808l.106.112" transform="translate(-77.665 -39.169)" fill="#627b49"/>
      </g>
    </g>
  </g>
</svg>
