<svg xmlns="http://www.w3.org/2000/svg" xmlns:xlink="http://www.w3.org/1999/xlink" width="37" height="37" viewBox="0 0 37 37">
  <defs>
    <clipPath id="clip-path">
      <rect id="Rectangle_3747" data-name="Rectangle 3747" width="15.592" height="18.968" fill="#3e6674"/>
    </clipPath>
  </defs>
  <g id="Group_14972" data-name="Group 14972" transform="translate(-2131 -3707)">
    <g id="Ellipse_447" data-name="Ellipse 447" transform="translate(2131 3707)" fill="#fff" stroke="#c1e5f1" stroke-width="1">
      <circle cx="18.5" cy="18.5" r="18.5" stroke="none"/>
      <circle cx="18.5" cy="18.5" r="18" fill="none"/>
    </g>
    <g id="Group_14966" data-name="Group 14966" transform="translate(2140.657 3716.016)">
      <g id="Group_14965" data-name="Group 14965" clip-path="url(#clip-path)">
        <path id="Path_6586" data-name="Path 6586" d="M14.638,295.139c.147-.038.3-.072.442-.116a2.775,2.775,0,0,0,1.342-4.4c-.027-.033-.052-.068-.053-.07a8.834,8.834,0,0,1-.667.929,2.627,2.627,0,0,1-3.147.446c-.28-.164-.559-.331-.853-.505a2.578,2.578,0,0,0,.038,2.047,2.706,2.706,0,0,0,2.092,1.638.7.7,0,0,1,.1.036Z" transform="translate(-2.025 -276.172)" fill="#3e6674"/>
        <path id="Path_6587" data-name="Path 6587" d="M10.248,69.394l-.494,1.14c.3.185.582.355.86.522.232.14.473.267.7.418a2.375,2.375,0,0,1,.832,1.024c.043-.077.073-.127.1-.179.342-.683.678-1.368,1.025-2.048a2.011,2.011,0,0,0-.079-2.09q-.775-1.271-1.531-2.553a2.182,2.182,0,0,0-1.169-.97Q8.679,63.991,6.876,63.3a.485.485,0,0,0-.433.017Q3.323,64.892.2,66.45c-.06.03-.119.062-.2.1.106.23.2.453.31.673a23.783,23.783,0,0,0,2.056,3.61A6.938,6.938,0,0,0,5.639,73.4a7.122,7.122,0,0,1,1.214.613c.64.382,1.275.773,1.919,1.149a1.859,1.859,0,0,0,2.789-1.245,1.8,1.8,0,0,0-.793-1.857c-.842-.513-1.691-1.013-2.536-1.52a.279.279,0,0,1-.111-.113,7.693,7.693,0,0,0-.995-1.575c-.018-.024-.035-.05-.046-.066L8.5,68.243a5.815,5.815,0,0,0,1.752,1.152" transform="translate(2.068 -60.131)" fill="#3e6674"/>
        <path id="Path_6588" data-name="Path 6588" d="M155.181,3.753c0,.333-.023.668,0,1a1.168,1.168,0,0,0,1.685.967c.652-.308,1.291-.641,1.936-.963l3.936-1.968c.388-.194.443-.422.174-.759q-.732-.92-1.469-1.835a.409.409,0,0,0-.555-.139q-2.707,1.159-5.414,2.319a.46.46,0,0,0-.309.473c0,.3,0,.6,0,.907h.011" transform="translate(-155.17 0)" fill="#3e6674"/>
      </g>
    </g>
  </g>
</svg>
