<svg xmlns="http://www.w3.org/2000/svg" xmlns:xlink="http://www.w3.org/1999/xlink" width="37" height="37" viewBox="0 0 37 37">
  <defs>
    <clipPath id="clip-path">
      <rect id="Rectangle_3745" data-name="Rectangle 3745" width="12.932" height="23.145" fill="#4f6a92"/>
    </clipPath>
  </defs>
  <g id="Group_14967" data-name="Group 14967" transform="translate(-2131 -3707)">
    <g id="Path_6579" data-name="Path 6579" transform="translate(2131 3707)" fill="#fff">
      <path d="M 18.5 36.5 C 13.69202041625977 36.5 9.171830177307129 34.62767028808594 5.772079944610596 31.22792053222656 C 2.372329950332642 27.82817077636719 0.5 23.30797958374023 0.5 18.5 C 0.5 13.69202041625977 2.372329950332642 9.171830177307129 5.772079944610596 5.772079944610596 C 9.171830177307129 2.372329950332642 13.69202041625977 0.5 18.5 0.5 C 23.30797958374023 0.5 27.82817077636719 2.372329950332642 31.22792053222656 5.772079944610596 C 34.62767028808594 9.171830177307129 36.5 13.69202041625977 36.5 18.5 C 36.5 23.30797958374023 34.62767028808594 27.82817077636719 31.22792053222656 31.22792053222656 C 27.82817077636719 34.62767028808594 23.30797958374023 36.5 18.5 36.5 Z" stroke="none"/>
      <path d="M 18.5 1 C 13.82558059692383 1 9.430940628051758 2.820320129394531 6.125629425048828 6.125629425048828 C 2.820320129394531 9.430940628051758 1 13.82558059692383 1 18.5 C 1 23.17441940307617 2.820320129394531 27.56906127929688 6.125629425048828 30.87437057495117 C 9.430940628051758 34.17967987060547 13.82558059692383 36 18.5 36 C 23.17441940307617 36 27.56906127929688 34.17967987060547 30.87437057495117 30.87437057495117 C 34.17967987060547 27.56906127929688 36 23.17441940307617 36 18.5 C 36 13.82558059692383 34.17967987060547 9.430940628051758 30.87437057495117 6.125629425048828 C 27.56906127929688 2.820320129394531 23.17441940307617 1 18.5 1 M 18.5 0 C 28.71726989746094 0 37 8.282730102539062 37 18.5 C 37 28.71726989746094 28.71726989746094 37 18.5 37 C 8.282730102539062 37 0 28.71726989746094 0 18.5 C 0 8.282730102539062 8.282730102539062 0 18.5 0 Z" stroke="none" fill="#c9d8ef"/>
    </g>
    <g id="Group_14962" data-name="Group 14962" transform="translate(2143.034 3712.594)">
      <g id="Group_14961" data-name="Group 14961" clip-path="url(#clip-path)">
        <path id="Path_6580" data-name="Path 6580" d="M2.149,21.354c-.339-.158-.647-.293-.947-.443a2.187,2.187,0,0,1-1.058-1,1.122,1.122,0,0,1,1.109-1.686,4.191,4.191,0,0,1,1.845.5c.408.222.536.163.673-.291a7.4,7.4,0,0,0,.114-3.6,11.731,11.731,0,0,0-.935-2.915A9.519,9.519,0,0,1,2.2,9.077c-.089-.621-.176-1.244-.291-1.861a1.427,1.427,0,0,1,.5-1.445Q3.776,4.6,5.144,3.439a1.793,1.793,0,0,0,.608-.995c.173-.757.356-1.512.531-2.269C6.307.071,6.33,0,6.463,0s.157.076.181.177c.179.764.365,1.526.538,2.291a1.808,1.808,0,0,0,.646,1.021c.842.7,1.677,1.4,2.518,2.1A1.821,1.821,0,0,1,11.015,7.4a24.623,24.623,0,0,1-.6,3.444c-.175.576-.419,1.133-.651,1.691a9.68,9.68,0,0,0-.87,4.38,10,10,0,0,0,.312,1.645c.077.322.243.374.538.208a4.2,4.2,0,0,1,1.924-.54,1.106,1.106,0,0,1,1.092,1.693,1.848,1.848,0,0,1-.535.648,11.462,11.462,0,0,1-1.192.656c-.064.034-.134.056-.265.11.393.062.651.216.7.575a1.416,1.416,0,0,1-.29,1.075.4.4,0,0,1-.511.1,3.137,3.137,0,0,0-1.225-.229,10.464,10.464,0,0,1-1.382-.1,2.434,2.434,0,0,1-.814-.351,1.229,1.229,0,0,0-1.541,0,2.771,2.771,0,0,1-1.418.441,7.608,7.608,0,0,0-2.062.26c-.293.1-.47,0-.592-.291a3.025,3.025,0,0,1-.193-.641.6.6,0,0,1,.455-.741c.07-.024.141-.045.25-.08M8.115,11.136c.3-.378.594-.763.9-1.143a1,1,0,0,0,.219-.643,2.845,2.845,0,0,1,.395-1.544.608.608,0,0,0,0-.68A14.642,14.642,0,0,0,7.311,4.1c-.232-.218-.463-.437-.7-.66A14.264,14.264,0,0,0,3.535,7.2a.506.506,0,0,0,.016.553,2.858,2.858,0,0,1,.4,1.719.449.449,0,0,0,.052.278c.358.468.73.926,1.092,1.382a.862.862,0,0,0,.615-.935,4.4,4.4,0,0,0-.21-.957,5.37,5.37,0,0,1-.293-2.007,1.406,1.406,0,0,1,1.308-1.4A1.343,1.343,0,0,1,7.96,7.023a4.341,4.341,0,0,1-.248,2.162,6.973,6.973,0,0,0-.24.768,1.011,1.011,0,0,0,.644,1.182" transform="translate(0 0)" fill="#4f6a92"/>
      </g>
    </g>
  </g>
</svg>
