<svg xmlns="http://www.w3.org/2000/svg" xmlns:xlink="http://www.w3.org/1999/xlink" width="37" height="37" viewBox="0 0 37 37">
  <defs>
    <clipPath id="clip-path">
      <rect id="Rectangle_2396" data-name="Rectangle 2396" width="16.964" height="19.504" fill="#677d51"/>
    </clipPath>
  </defs>
  <g id="Group_14969" data-name="Group 14969" transform="translate(-2131 -3707)">
    <g id="Ellipse_447" data-name="Ellipse 447" transform="translate(2131 3707)" fill="#fff" stroke="#c7e3ab" stroke-width="1">
      <circle cx="18.5" cy="18.5" r="18.5" stroke="none"/>
      <circle cx="18.5" cy="18.5" r="18" fill="none"/>
    </g>
    <g id="Group_14957" data-name="Group 14957" transform="translate(2140.594 3715.748)">
      <g id="Group_12429" data-name="Group 12429" clip-path="url(#clip-path)">
        <path id="Path_6563" data-name="Path 6563" d="M55.925,8.9c0-2.059,0-4.188.009-6.281a1.154,1.154,0,0,0-.33-.874.984.984,0,0,0-.777-.233,2.8,2.8,0,0,1-.308,0l-.111,0V1.37c0-.124,0-.237,0-.351A.926.926,0,0,0,53.393,0h-2.73c-1.879,0-3.823,0-5.734,0h0a.6.6,0,0,0-.459.193c-1.194,1.2-2.4,2.4-3.572,3.568a.618.618,0,0,0-.2.477c0,2.024,0,4.083,0,6.073v1.606c0,.014,0,.028,0,.043a.838.838,0,0,0,0,.133.294.294,0,0,0,.3.272.285.285,0,0,0,.308-.259,1.5,1.5,0,0,0,.011-.23v-.03q0-3.067,0-6.134V4.4h2.732A.938.938,0,0,0,45.1,3.354q0-.879,0-1.758V.625h8.208c.426,0,.49.064.49.488V16.875c0,.016,0,.032,0,.048,0,.041,0,.08,0,.119a.3.3,0,0,1-.32.325c-.05,0-.1,0-.153,0H46.437c-.283,0-.424.1-.431.3a.274.274,0,0,0,.072.208.491.491,0,0,0,.363.108h1.4c1.829,0,3.721,0,5.581-.008a1.258,1.258,0,0,0,.632-.193.905.905,0,0,0,.36-.836c0-3.924,0-7.913,0-11.771V2.132h.451c.373,0,.444.072.444.446q0,7.923,0,15.846c0,.386-.068.454-.454.454H45.289a1.255,1.255,0,0,0-.158,0,.311.311,0,0,0,.012.621c.029,0,.057,0,.086,0H54.84a.95.95,0,0,0,1.086-1.077q0-2.627,0-5.253v-2q0-1.134,0-2.267M44.478,3.384c0,.3-.09.4-.385.4-.563,0-1.138,0-1.694,0H41.81l2.665-2.668c0,.015,0,.03,0,.046,0,.863,0,1.57,0,2.225" transform="translate(-38.969)" fill="#677d51"/>
        <path id="Path_6564" data-name="Path 6564" d="M206.171,32.534a.441.441,0,0,0,.312-.2.405.405,0,0,0-.094-.361c-.793-.808-1.605-1.614-2.322-2.325a.314.314,0,0,0-.5-.005c-.721.717-1.538,1.529-2.334,2.343a.407.407,0,0,0-.082.362c.036.1.2.17.3.185a2.028,2.028,0,0,0,.368.011l.135,0v.833c0,.506,0,1.03,0,1.545,0,.3.1.4.4.4h2.925c.312,0,.4-.093.4-.411q0-.772,0-1.543v-.822l.13,0a1.823,1.823,0,0,0,.366-.012M204.048,34.7h-.473v-.968h.473Zm.633-1.144c0-.364-.089-.453-.45-.453h-.241c-.227,0-.462,0-.692,0a.312.312,0,0,0-.353.352c0,.3,0,.592,0,.9q0,.172,0,.347h-.362V32.559h2.461V34.7h-.361v-.324c0-.275,0-.549,0-.822m.7-1.645h-3.112l1.568-1.548Z" transform="translate(-192.6 -28.271)" fill="#677d51"/>
        <path id="Path_6565" data-name="Path 6565" d="M7.123,295.275a3.555,3.555,0,0,0-3.539-3.583H3.567a3.561,3.561,0,0,0-.011,7.122h.01a3.562,3.562,0,0,0,3.558-3.539m-.614-.017a2.955,2.955,0,0,1-2.953,2.934H3.546a2.944,2.944,0,0,1,.016-5.889h0a2.957,2.957,0,0,1,2.947,2.955" transform="translate(0 -279.316)" fill="#677d51"/>
        <path id="Path_6566" data-name="Path 6566" d="M77.335,231.525a.173.173,0,0,0,.106.028c.022,0,.045,0,.068,0s.04,0,.059,0h9.715l.062,0a.28.28,0,0,0,.192-.029c.059-.046.2-.167.2-.293,0-.077-.064-.17-.2-.276a.273.273,0,0,0-.182-.03l-.051,0-9.737,0-.055,0a.3.3,0,0,0-.2.032c-.063.049-.209.176-.2.294s.128.211.222.281" transform="translate(-73.841 -221.119)" fill="#677d51"/>
        <path id="Path_6567" data-name="Path 6567" d="M77.072,267.334a1.075,1.075,0,0,0,.159.008H87a1.158,1.158,0,0,0,.153-.006.291.291,0,0,0,.289-.325.287.287,0,0,0-.3-.288c-.049,0-.1,0-.145,0H77.229a1.408,1.408,0,0,0-.146,0,.306.306,0,0,0-.011.61" transform="translate(-73.534 -255.404)" fill="#677d51"/>
        <path id="Path_6568" data-name="Path 6568" d="M77.59,195.531c-.017,0-.036,0-.054,0a.218.218,0,0,0-.159.023c-.109.088-.215.183-.216.283,0,.118.149.24.213.287a.287.287,0,0,0,.19.027l.062,0h9.692c.02,0,.042,0,.063,0s.048,0,.072,0a.2.2,0,0,0,.117-.029.55.55,0,0,0,.222-.275.232.232,0,0,0-.032-.186.318.318,0,0,0-.219-.124.746.746,0,0,0-.134-.005H77.59Z" transform="translate(-73.887 -187.228)" fill="#677d51"/>
        <path id="Path_6569" data-name="Path 6569" d="M224.6,337.837h-2.329c-.467,0-.95,0-1.426,0a.377.377,0,0,0-.3.123.292.292,0,0,0-.051.254c.048.218.22.247.383.247H224.6a.491.491,0,0,0,.36-.106.283.283,0,0,0,.075-.212c0-.274-.256-.306-.444-.306" transform="translate(-211.125 -323.503)" fill="#677d51"/>
        <path id="Path_6570" data-name="Path 6570" d="M224.677,302.244c-1.182,0-2.416,0-3.775,0-.329,0-.4.169-.4.31a.283.283,0,0,0,.077.21.438.438,0,0,0,.319.1h3.8a.4.4,0,0,0,.291-.1.292.292,0,0,0,.077-.218c0-.137-.074-.3-.385-.3" transform="translate(-211.148 -289.419)" fill="#677d51"/>
        <path id="Path_6571" data-name="Path 6571" d="M220.706,373.484a.413.413,0,0,0-.31.2.25.25,0,0,0,0,.25.372.372,0,0,0,.325.154l.833,0h3.026a.3.3,0,0,0,.344-.292.284.284,0,0,0-.069-.221.362.362,0,0,0-.273-.1c-1.2,0-2.556-.005-3.88.007" transform="translate(-211.016 -357.629)" fill="#677d51"/>
        <g id="Group_14958" data-name="Group 14958" transform="translate(1.623 13.966)">
          <path id="Path_6048" data-name="Path 6048" d="M394.864,96.913a.139.139,0,0,1-.042-.063c0-.014-.034,0-.032.022a.079.079,0,0,0,.031.057.112.112,0,0,0-.04.036s-.089.008-.108-.046-.006-.108.042-.109c0,0,.028,0,.038.006s.031.039.052.029c0,0,.018-.012,0-.049s-.008-.062-.04-.054a.2.2,0,0,1-.136-.009s0-.028-.1-.057a2.532,2.532,0,0,1-.214-.355.789.789,0,0,0-.259-.338s-.072-.034-.109-.373a1.062,1.062,0,0,0-.214-.64.265.265,0,0,0-.186-.076.358.358,0,0,1-.343-.325s0-.008,0-.012,0,.008,0,.012a.233.233,0,0,1-.19.112.244.244,0,0,1-.2-.114.252.252,0,0,1-.043.181.49.49,0,0,1-.216.1.418.418,0,0,0-.37.2,1.575,1.575,0,0,0-.142.53.777.777,0,0,1-.208.409.932.932,0,0,0-.226.386,1.04,1.04,0,0,1-.2.382.219.219,0,0,0-.094-.023.184.184,0,0,0-.111.029.075.075,0,0,1-.053.014s-.04.037,0,.04a.173.173,0,0,0,.083-.015c.014,0,.071.015.068.045s-.031.1-.065.1-.043-.012-.068-.028c0,0,0-.091-.009-.092s-.038.035-.04.063-.011.071.014.083.051.02.031.046-.086.1-.1.123-.1.114-.076.14.1-.076.123-.1.069-.082.08-.069-.042.083-.054.106-.046.065-.037.076.049-.022.113-.1.086-.079.085-.059a1.129,1.129,0,0,1-.037.117c-.008.025-.029.059-.014.068s.069-.075.1-.132a1.6,1.6,0,0,1,.162-.225s.009-.028.014-.048a.523.523,0,0,1,.12-.126,2.843,2.843,0,0,0,.458-.49,3.755,3.755,0,0,0,.182-.522c.052-.134.066-.177.083-.174a2.507,2.507,0,0,0,.142.513.879.879,0,0,1-.029.379.383.383,0,0,1-.165.165.138.138,0,0,0,.122.068c.1,0,.123-.059.224-.049a.12.12,0,0,1,.086.066.177.177,0,0,0,.133.109,1.61,1.61,0,0,0,.227.025c0-.031.011-.12.1-.108.114.014.153.066.233.02.059-.034.127-.09.187-.123h0a.49.49,0,0,1-.149-.213,1.65,1.65,0,0,1,.031-.442,2.532,2.532,0,0,0,.1-.384s.022-.02.043.059.16.376.2.5a.562.562,0,0,0,.194.333,2.022,2.022,0,0,1,.365.381s0,.042.083.166a1.645,1.645,0,0,1,.057.239s0,.06.026.06.012-.046.011-.085-.009-.142-.009-.142.012-.045.032.017.038.156.055.208c0,0,.011.037.034.032s0-.062-.012-.117-.025-.113-.014-.117.043.093.054.125c0,0,.02.026.034.022a.616.616,0,0,0-.052-.243s-.015-.036.026-.036a.2.2,0,0,0,.108-.045C394.882,96.96,394.882,96.93,394.864,96.913Zm-2.044-2a.015.015,0,0,0,.009-.006.084.084,0,0,1,.021-.026.087.087,0,0,1-.009-.032.015.015,0,0,0-.006-.009s0,0,0,0,0,0,0,0a.015.015,0,0,0,.01,0,.036.036,0,0,0,.033-.049.016.016,0,0,0,0-.01s0,0,0-.005.005,0,.005,0a.015.015,0,0,0,.01,0,.086.086,0,0,1,.033,0,.084.084,0,0,1,.016-.029.015.015,0,0,0,0-.01s0,0,0,0,0,0,0,0a.016.016,0,0,0,.009.005.087.087,0,0,1,.032.01.085.085,0,0,1,.026-.021.015.015,0,0,0,.006-.009s0,0,0,0,0,0,0,0a.016.016,0,0,0,.006.009.035.035,0,0,0,.057.012.016.016,0,0,0,.009-.006s0,0,0,0,0,0,0,0a.015.015,0,0,0,0,.01.035.035,0,0,0,.049.033.016.016,0,0,0,.01,0s0,0,.005,0,0,.005,0,.005a.015.015,0,0,0,0,.01.085.085,0,0,1,0,.033.086.086,0,0,1,.029.016.015.015,0,0,0,.01,0s0,0,0,0,0,0,0,0a.016.016,0,0,0-.006.009.088.088,0,0,1-.01.032.084.084,0,0,1,.021.026.015.015,0,0,0,.009.006s0,0,0,0,0,0,0,0a.016.016,0,0,0-.009.006.085.085,0,0,1-.021.026.087.087,0,0,1,.009.032.015.015,0,0,0,.006.009s0,0,0,0,0,0,0,0a.016.016,0,0,0-.01,0,.083.083,0,0,1-.03.016.085.085,0,0,1,0,.033.016.016,0,0,0,0,.01s0,0,0,.005-.005,0-.005,0a.015.015,0,0,0-.01,0,.085.085,0,0,1-.033,0,.087.087,0,0,1-.016.029.015.015,0,0,0,0,.01s0,0,0,0,0,0,0,0a.015.015,0,0,0-.009-.006.036.036,0,0,0-.058.011.016.016,0,0,0-.006.009s0,0,0,0,0,0,0,0a.016.016,0,0,0-.006-.009.036.036,0,0,0-.057-.012.016.016,0,0,0-.009.006s0,0,0,0,0,0,0,0a.016.016,0,0,0,0-.01.036.036,0,0,0-.049-.033.016.016,0,0,0-.01,0s0,0-.005,0,0-.005,0-.005a.015.015,0,0,0,0-.01.085.085,0,0,1,0-.033.086.086,0,0,1-.029-.016.015.015,0,0,0-.01,0s0,0,0,0,0,0,0,0a.015.015,0,0,0,.006-.009.084.084,0,0,1,.01-.032.086.086,0,0,1-.021-.026.015.015,0,0,0-.009-.006s0,0,0,0S392.82,94.916,392.82,94.916Zm0,.519a.011.011,0,0,0,.006,0,.122.122,0,0,1,.036-.039.121.121,0,0,1-.012-.052.011.011,0,0,0,0-.007s0,0,0,0h0a.012.012,0,0,0,.007,0,.113.113,0,0,1,.053-.016.115.115,0,0,1,.015-.053.012.012,0,0,0,0-.007s0,0,0,0h0a.011.011,0,0,0,.007,0,.057.057,0,0,0,.092-.024.012.012,0,0,0,0-.006s0,0,0,0,0,0,0,0a.012.012,0,0,0,0,.006.122.122,0,0,1,.039.036.124.124,0,0,1,.052-.012.012.012,0,0,0,.007,0h0s0,0,0,0a.012.012,0,0,0,0,.007.058.058,0,0,0,.069.068.012.012,0,0,0,.007,0h0s0,0,0,0a.011.011,0,0,0,0,.007.119.119,0,0,1-.013.052.121.121,0,0,1,.037.039.011.011,0,0,0,.006,0h0a.011.011,0,0,0-.006,0,.056.056,0,0,0-.024.091.012.012,0,0,0,0,.007s0,0,0,0h0a.012.012,0,0,0-.007,0,.058.058,0,0,0-.068.069.012.012,0,0,0,0,.007s0,0,0,0h0a.012.012,0,0,0-.007,0,.057.057,0,0,0-.091.024.012.012,0,0,0,0,.006s0,0,0,0h0s0,0,0,0a.012.012,0,0,0,0-.006.056.056,0,0,0-.09-.024.011.011,0,0,0-.007,0h0s0,0,0,0a.012.012,0,0,0,0-.007.115.115,0,0,1-.016-.053.117.117,0,0,1-.053-.015.011.011,0,0,0-.007,0h0s0,0,0,0a.012.012,0,0,0,0-.007.121.121,0,0,1,.013-.052.12.12,0,0,1-.037-.039.011.011,0,0,0-.006,0h0Zm-.056.265h-.143a.175.175,0,0,1-.2-.139c-.043-.163-.049-.176-.049-.176a.038.038,0,0,0-.022-.02s.032-.008.04.014.054.174.054.174c.017.129.173.123.173.123h.205a.035.035,0,0,0,.028-.019S392.856,95.7,392.762,95.7Zm.473.931a.021.021,0,0,0,.005.012s0,0,0,0h0s0,0,0,0a.021.021,0,0,0-.013,0c-.006,0-.073.039-.11.023,0,.04-.07.079-.076.083a.021.021,0,0,0-.008.011s0,0,0,0,0,0,0,0a.02.02,0,0,0-.008-.011c-.006,0-.071-.043-.076-.083-.037.015-.1-.02-.109-.023a.022.022,0,0,0-.013,0s0,0,0,0h0s0,0,0,0a.02.02,0,0,0,.005-.012c0-.007,0-.087.035-.109-.034-.022-.035-.1-.035-.109a.021.021,0,0,0-.005-.012s0,0,0,0h0s0,0,0,0a.022.022,0,0,0,.013,0c.006,0,.073-.039.11-.023,0-.04.07-.079.076-.083a.022.022,0,0,0,.008-.011s0,0,0,0,0,0,0,0a.021.021,0,0,0,.008.011c.006,0,.07.043.076.082.037-.015.1.02.109.023a.022.022,0,0,0,.013,0s0,0,0,0,0,0,0,0a.021.021,0,0,0-.005.012c0,.007,0,.087-.036.109C393.233,96.544,393.234,96.624,393.234,96.631Zm.007-.732a.016.016,0,0,0-.007.01c0,.005-.012.046-.031.056.018.011.028.052.029.058a.015.015,0,0,0,.006.01h0a.016.016,0,0,0-.011,0,.109.109,0,0,1-.055.028.111.111,0,0,1-.01.061.015.015,0,0,0,0,.012s0,0,0,0h0a.016.016,0,0,0-.012,0c-.006,0-.054,0-.067-.013,0,.021-.04.048-.046.05a.016.016,0,0,0-.008.009h0a.016.016,0,0,0-.007-.009c-.006,0-.05-.031-.046-.053h0c-.01.02-.062.016-.068.015a.016.016,0,0,0-.012,0h0a0,0,0,0,1,0,0,.016.016,0,0,0,0-.012s-.019-.048-.007-.066c-.021,0-.055-.026-.059-.03a.016.016,0,0,0-.011,0h0a.015.015,0,0,0,.007-.01c0-.005.012-.046.031-.057-.018-.011-.029-.052-.029-.058a.016.016,0,0,0-.006-.01h0a.015.015,0,0,0,.011,0,.069.069,0,0,0,.065-.089.016.016,0,0,0,0-.012,0,0,0,0,1,0,0h0a.015.015,0,0,0,.011,0c.006,0,.054,0,.066.013,0-.021.04-.048.046-.05a.016.016,0,0,0,.007-.009h0a.016.016,0,0,0,.008.009c.005,0,.049.031.045.053h0c.01-.02.062-.016.068-.015a.016.016,0,0,0,.012,0h0a0,0,0,0,1,0,0,.015.015,0,0,0,0,.012s.018.048.007.066c.021,0,.055.026.059.03a.016.016,0,0,0,.011,0h0Zm.407-.514s-.006.012-.049.176a.175.175,0,0,1-.2.139h-.143c-.094,0-.089-.042-.089-.042a.035.035,0,0,0,.028.019h.2s.156.006.173-.123c0,0,.043-.144.054-.174s.04-.014.04-.014A.038.038,0,0,0,393.648,95.385Z" transform="translate(-391 -93.734)" fill="#677d51"/>
          <g id="Group_12378" data-name="Group 12378" transform="translate(0.407 2.879)">
            <path id="Path_6049" data-name="Path 6049" d="M425.286,260.391a.068.068,0,0,1-.02-.043v-.01h-.01a.068.068,0,0,1-.043-.02c-.013-.012-.055-.065-.057-.069a.007.007,0,0,0-.006,0h0s0,0,0,0,0,0,0,0h0a.007.007,0,0,0,.006,0s.044-.057.057-.069a.069.069,0,0,1,.043-.02h.01v-.01a.069.069,0,0,1,.02-.043c.007-.007.026-.024.043-.037a1.119,1.119,0,0,1-.112-.022s-.1-.023-.126-.088a.136.136,0,0,0-.191-.068s-.185.088-.254-.06h0a.347.347,0,0,0-.123-.037c-.048,0-.1.049-.133.052s-.126-.025-.159.048a.057.057,0,0,0,.032.057h0a.417.417,0,0,0,.125.02.183.183,0,0,1,.129.025.673.673,0,0,1,.114.122.542.542,0,0,1,.348.123.657.657,0,0,0,.213.094.571.571,0,0,1-.233-.077.629.629,0,0,0-.362-.114.756.756,0,0,0-.452.174.554.554,0,0,1,.458-.2h0a.255.255,0,0,0-.216-.119.233.233,0,0,1-.136-.044,1.9,1.9,0,0,0-.395.208c-.066.072-.159.217-.1.338s.247.208.566.156c.291-.048.714-.21.987-.238Z" transform="translate(-423.737 -259.787)" fill="#677d51"/>
            <path id="Path_6050" data-name="Path 6050" d="M558.659,261.008c-.059-.1-.1-.111-.21-.159s-.273-.117-.305-.123a.034.034,0,0,1,.023-.029c.022-.006.048-.022.031-.046s-.059-.017-.077-.009-.025-.022-.066-.019-.046-.042-.1-.034a.092.092,0,0,0-.049.025.061.061,0,0,1-.043.017h0a2.087,2.087,0,0,0-.206.136c-.052.045-.135.029-.242-.008-.087-.031-.1.05-.1.079a1.314,1.314,0,0,0,.246-.014.942.942,0,0,1,.717.153,1.182,1.182,0,0,0-.709-.123,1.262,1.262,0,0,1-.314.009.432.432,0,0,1,.033.028.068.068,0,0,1,.02.043v.01h.01a.069.069,0,0,1,.043.02c.013.012.055.066.057.069a.007.007,0,0,0,.006,0h0s0,0,0,0,0,0,0,0h0a.007.007,0,0,0-.006,0s-.044.057-.057.069a.068.068,0,0,1-.043.02h-.01v.01a.069.069,0,0,1-.02.043l-.021.019c.254.012.475.192.781.192,0,0,.128-.012.227-.031s.285.015.347-.049A.277.277,0,0,0,558.659,261.008Z" transform="translate(-555.586 -260.578)" fill="#677d51"/>
          </g>
          <path id="Path_6051" data-name="Path 6051" d="M546.285,49.884a.1.1,0,1,0,.1.1A.1.1,0,0,0,546.285,49.884Z" transform="translate(-544.256 -49.617)" fill="#677d51"/>
          <path id="Path_6052" data-name="Path 6052" d="M524,28.976c.008.029.02.046.023.06s0,.06.049.026a.837.837,0,0,0,.064.193v0a.27.27,0,0,0,.2.119.248.248,0,0,0,.194-.107h0a1.145,1.145,0,0,0,.079-.2.034.034,0,0,0,.055-.026.679.679,0,0,1,.043-.143c.012-.026.036-.083-.051-.054,0,0,.029-.39-.314-.39s-.321.39-.321.39-.062-.028-.048.054C523.979,28.9,523.994,28.947,524,28.976Zm.352-.48a.051.051,0,1,1-.052.051A.051.051,0,0,1,524.354,28.5Zm-.1.03s0,0,0,0a.1.1,0,0,0,.2.007.111.111,0,0,1,0,.032.109.109,0,1,1-.209-.043Zm.024.228a.1.1,0,0,1,.149,0,.326.326,0,0,1,.113.064.27.27,0,0,1-.114.071.1.1,0,0,1-.15,0,.359.359,0,0,1-.111-.065A.3.3,0,0,1,524.276,28.755Z" transform="translate(-522.322 -28.457)" fill="#677d51"/>
          <g id="Group_12379" data-name="Group 12379" transform="translate(1.9 2.099)">
            <path id="Path_6053" data-name="Path 6053" d="M545.307,197.163a.129.129,0,0,0-.223,0Z" transform="translate(-545.066 -197.099)" fill="#677d51"/>
            <path id="Path_6054" data-name="Path 6054" d="M545.176,202.45l.11.189.11-.189Z" transform="translate(-545.157 -202.383)" fill="#677d51"/>
            <path id="Path_6055" data-name="Path 6055" d="M543.673,202.472a.129.129,0,0,0,.111.191Z" transform="translate(-543.657 -202.405)" fill="#677d51"/>
            <path id="Path_6056" data-name="Path 6056" d="M554.261,202.467l-.112.191a.129.129,0,0,0,.112-.191Z" transform="translate(-554.018 -202.4)" fill="#677d51"/>
          </g>
          <g id="Group_12380" data-name="Group 12380" transform="translate(1.885 1.042)">
            <path id="Path_6057" data-name="Path 6057" d="M544.216,118.252a.07.07,0,1,1-.025,0h-.11l.124.211.125-.211Z" transform="translate(-544.061 -118.176)" fill="#677d51"/>
            <path id="Path_6058" data-name="Path 6058" d="M544.226,112.236a.145.145,0,0,0-.251,0Z" transform="translate(-543.956 -112.163)" fill="#677d51"/>
            <path id="Path_6059" data-name="Path 6059" d="M548.587,118.444a.067.067,0,0,0,.067.067l.017,0-.015,0a.067.067,0,0,1,0-.133l.016,0-.017,0A.067.067,0,0,0,548.587,118.444Z" transform="translate(-548.511 -118.3)" fill="#677d51"/>
            <path id="Path_6060" data-name="Path 6060" d="M542.463,118.265a.145.145,0,0,0,.126.213Z" transform="translate(-542.446 -118.189)" fill="#677d51"/>
            <path id="Path_6061" data-name="Path 6061" d="M548.943,118.682a.064.064,0,1,0,.064-.064A.064.064,0,0,0,548.943,118.682Z" transform="translate(-548.862 -118.538)" fill="#677d51"/>
            <path id="Path_6062" data-name="Path 6062" d="M554.332,118.31l-.126.213a.145.145,0,0,0,.126-.213Z" transform="translate(-554.06 -118.233)" fill="#677d51"/>
          </g>
          <path id="Path_6063" data-name="Path 6063" d="M554.006,279.529h0Z" transform="translate(-551.977 -276.404)" fill="#677d51"/>
          <rect id="Rectangle_2368" data-name="Rectangle 2368" transform="translate(1.816 3.338)" fill="#677d51"/>
          <g id="Group_12381" data-name="Group 12381" transform="translate(1.904 3.213)">
            <rect id="Rectangle_2369" data-name="Rectangle 2369" width="0.174" height="0.174" transform="translate(0.038 0.037)" fill="#677d51"/>
            <path id="Path_6064" data-name="Path 6064" d="M561.246,289.708v.172a.124.124,0,0,0,0-.172Z" transform="translate(-561.031 -289.67)" fill="#677d51"/>
            <path id="Path_6065" data-name="Path 6065" d="M544.049,289.688a.124.124,0,0,0,0,.173Z" transform="translate(-544.014 -289.65)" fill="#677d51"/>
            <path id="Path_6066" data-name="Path 6066" d="M547.057,303.8a.124.124,0,0,0,.173,0Z" transform="translate(-547.019 -303.587)" fill="#677d51"/>
            <path id="Path_6067" data-name="Path 6067" d="M547.305,286.652a.124.124,0,0,0-.171,0Z" transform="translate(-547.095 -286.618)" fill="#677d51"/>
          </g>
          <g id="Group_12382" data-name="Group 12382" transform="translate(1.882 2.641)">
            <path id="Path_6068" data-name="Path 6068" d="M544.018,243.517a.127.127,0,1,0,.127.127A.127.127,0,0,0,544.018,243.517Zm0,.208a.1.1,0,1,1,.1-.1A.1.1,0,0,1,544.018,243.725Z" transform="translate(-543.871 -243.481)" fill="#677d51"/>
            <path id="Path_6069" data-name="Path 6069" d="M542.393,240.63a.147.147,0,1,0,.147.147A.147.147,0,0,0,542.393,240.63Zm0,.292a.129.129,0,1,1,.129-.129A.129.129,0,0,1,542.393,240.922Z" transform="translate(-542.246 -240.63)" fill="#677d51"/>
            <path id="Path_6070" data-name="Path 6070" d="M546.043,243.8a.1.1,0,1,0,.1.1A.1.1,0,0,0,546.043,243.8Z" transform="translate(-545.896 -243.765)" fill="#677d51"/>
          </g>
          <g id="Group_12383" data-name="Group 12383" transform="translate(1.893 1.566)">
            <path id="Path_6071" data-name="Path 6071" d="M545.858,159.4h.063v0h-.064Z" transform="translate(-545.82 -159.337)" fill="#677d51"/>
            <path id="Path_6072" data-name="Path 6072" d="M548.431,159.83l.037-.063h0l-.036.06Z" transform="translate(-548.363 -159.699)" fill="#677d51"/>
            <path id="Path_6073" data-name="Path 6073" d="M551.763,169.883h-.056l0,0h.053Z" transform="translate(-551.6 -169.688)" fill="#677d51"/>
            <path id="Path_6074" data-name="Path 6074" d="M556.774,159.857l.034.055h0l-.033-.055Z" transform="translate(-556.604 -159.788)" fill="#677d51"/>
            <path id="Path_6075" data-name="Path 6075" d="M547.679,163.815l.006.01h0Z" transform="translate(-547.622 -163.697)" fill="#677d51"/>
            <path id="Path_6076" data-name="Path 6076" d="M556.883,159.4l0,0h.067l-.033.056,0,0,.037-.063Z" transform="translate(-556.711 -159.337)" fill="#677d51"/>
            <path id="Path_6077" data-name="Path 6077" d="M552.037,170.334h-.05l.026.041Z" transform="translate(-551.877 -170.134)" fill="#677d51"/>
            <path id="Path_6078" data-name="Path 6078" d="M545.244,165.117l0,0h-.067l.033-.056,0,0-.037.063Z" transform="translate(-545.143 -164.92)" fill="#677d51"/>
            <path id="Path_6079" data-name="Path 6079" d="M543.34,154.349l-.04.067.039.065,0,0,0,0-.037-.059-.034.058h.062l.014,0v0h-.08l-.033.056-.034-.056h-.081l.04-.068-.039-.065,0,0,0,0,.037.059.034-.058h-.062l-.014,0v0h.08l.033-.056.034.056h.08a.136.136,0,1,0,.023.075A.136.136,0,0,0,543.339,154.347Z" transform="translate(-543.089 -154.286)" fill="#677d51"/>
            <path id="Path_6080" data-name="Path 6080" d="M559.917,164.9l0-.007h0Z" transform="translate(-559.704 -164.76)" fill="#677d51"/>
            <path id="Path_6081" data-name="Path 6081" d="M556.6,164.7l-.037.063h0l.036-.06Z" transform="translate(-556.397 -164.568)" fill="#677d51"/>
            <path id="Path_6082" data-name="Path 6082" d="M556.885,169.969h-.063v0h.064Z" transform="translate(-556.65 -169.772)" fill="#677d51"/>
            <path id="Path_6083" data-name="Path 6083" d="M557.221,159.865h-.061l.031.052Z" transform="translate(-556.985 -159.795)" fill="#677d51"/>
            <path id="Path_6084" data-name="Path 6084" d="M551.306,169.878l0,0h0l0,0Z" transform="translate(-551.2 -169.681)" fill="#677d51"/>
            <path id="Path_6085" data-name="Path 6085" d="M551.638,170.334h0l-.027.046-.029-.046h0l.03.051Z" transform="translate(-551.471 -170.134)" fill="#677d51"/>
            <path id="Path_6086" data-name="Path 6086" d="M548.549,165.242h0l.033.055h0Z" transform="translate(-548.481 -165.106)" fill="#677d51"/>
            <path id="Path_6087" data-name="Path 6087" d="M559.655,164.47l0,0h0l0,0Z" transform="translate(-559.447 -164.341)" fill="#677d51"/>
            <path id="Path_6088" data-name="Path 6088" d="M556.352,169.96h0v0h0Z" transform="translate(-556.183 -169.765)" fill="#677d51"/>
            <path id="Path_6089" data-name="Path 6089" d="M548.823,159.834l-.036-.058h-.059l-.038.065.036.058h.059Z" transform="translate(-548.62 -159.707)" fill="#677d51"/>
            <path id="Path_6090" data-name="Path 6090" d="M546.081,165.534l-.031-.052-.03.051Z" transform="translate(-545.984 -165.343)" fill="#677d51"/>
            <path id="Path_6091" data-name="Path 6091" d="M552.126,155.938h.049l-.026-.041Z" transform="translate(-552.013 -155.877)" fill="#677d51"/>
            <path id="Path_6092" data-name="Path 6092" d="M556.49,159.4l0,0h0l0,0Z" transform="translate(-556.323 -159.337)" fill="#677d51"/>
            <path id="Path_6093" data-name="Path 6093" d="M551.9,159.4h.056l0,0H551.9Z" transform="translate(-551.794 -159.337)" fill="#677d51"/>
            <path id="Path_6094" data-name="Path 6094" d="M551.427,159.4h0v0h0Z" transform="translate(-551.323 -159.337)" fill="#677d51"/>
            <path id="Path_6095" data-name="Path 6095" d="M548.294,164.823l0,0h0l0,0Z" transform="translate(-548.229 -164.692)" fill="#677d51"/>
            <path id="Path_6096" data-name="Path 6096" d="M551.647,155.159h0l.027-.046.029.046h0l-.03-.051Z" transform="translate(-551.541 -155.098)" fill="#677d51"/>
          </g>
        </g>
      </g>
    </g>
  </g>
</svg>
