<svg xmlns="http://www.w3.org/2000/svg" width="19.717" height="18.599" viewBox="0 0 19.717 18.599">
  <path id="Icon_ionic-md-arrow-round-back" data-name="Icon ionic-md-arrow-round-back" d="M23.633,13.837H11.643l4.651-4.449a1.853,1.853,0,0,0,0-2.533,1.657,1.657,0,0,0-2.421,0L6.129,14.363a1.707,1.707,0,0,0-.5,1.255v.022a1.707,1.707,0,0,0,.5,1.255L13.867,24.4a1.657,1.657,0,0,0,2.421,0,1.853,1.853,0,0,0,0-2.533l-4.651-4.449H23.628a1.754,1.754,0,0,0,1.715-1.793A1.735,1.735,0,0,0,23.633,13.837Z" transform="translate(-5.625 -6.33)" fill="#fff"/>
</svg>
