<svg xmlns="http://www.w3.org/2000/svg" xmlns:xlink="http://www.w3.org/1999/xlink" width="37.011" height="45.024" viewBox="0 0 37.011 45.024">
  <defs>
    <clipPath id="clip-path">
      <rect id="Rectangle_3752" data-name="Rectangle 3752" width="37.011" height="45.024" fill="#3e6674"/>
    </clipPath>
  </defs>
  <g id="Group_15004" data-name="Group 15004" clip-path="url(#clip-path)">
    <path id="Path_6608" data-name="Path 6608" d="M18.937,301.445c.35-.091.7-.172,1.05-.275a6.586,6.586,0,0,0,3.184-10.455c-.065-.078-.123-.162-.126-.166a20.987,20.987,0,0,1-1.582,2.2,6.237,6.237,0,0,1-7.47,1.058c-.665-.39-1.327-.785-2.025-1.2a6.12,6.12,0,0,0,.091,4.859,6.424,6.424,0,0,0,4.965,3.888,1.659,1.659,0,0,1,.244.084Z" transform="translate(11.005 -256.421)" fill="#3e6674"/>
    <path id="Path_6609" data-name="Path 6609" d="M24.326,77.818l-1.172,2.707c.724.44,1.381.842,2.04,1.239.551.332,1.122.635,1.655.993a5.639,5.639,0,0,1,1.976,2.43c.1-.182.174-.3.236-.425.811-1.62,1.61-3.246,2.433-4.861a4.772,4.772,0,0,0-.187-4.961q-1.839-3.016-3.635-6.059a5.18,5.18,0,0,0-2.774-2.3q-4.3-1.586-8.579-3.216a1.151,1.151,0,0,0-1.028.041Q7.887,67.131.467,70.83c-.142.071-.281.148-.466.245.251.545.485,1.076.737,1.6a56.456,56.456,0,0,0,4.881,8.569,16.469,16.469,0,0,0,7.766,6.08,16.9,16.9,0,0,1,2.882,1.454c1.52.907,3.027,1.835,4.555,2.728a4.413,4.413,0,0,0,6.621-2.955A4.264,4.264,0,0,0,25.56,84.14c-2-1.217-4.014-2.4-6.019-3.609a.663.663,0,0,1-.263-.267,18.261,18.261,0,0,0-2.361-3.739c-.044-.057-.082-.118-.109-.157l3.359-1.283a13.8,13.8,0,0,0,4.159,2.734" transform="translate(4.91 -55.831)" fill="#3e6674"/>
    <path id="Path_6610" data-name="Path 6610" d="M155.2,8.909c0,.791-.054,1.586.011,2.372a2.772,2.772,0,0,0,4,2.295c1.547-.731,3.065-1.522,4.6-2.287l9.342-4.671c.922-.461,1.051-1,.413-1.8q-1.737-2.183-3.487-4.356a.97.97,0,0,0-1.317-.331q-6.426,2.751-12.852,5.5a1.093,1.093,0,0,0-.733,1.124c.008.718,0,1.436,0,2.154h.025" transform="translate(-155.17 0)" fill="#3e6674"/>
  </g>
</svg>
