<svg xmlns="http://www.w3.org/2000/svg" width="14.818" height="16.935" viewBox="0 0 14.818 16.935">
  <path id="Icon_metro-organization" data-name="Icon metro-organization" d="M17.2,8.279H6.616A2.118,2.118,0,0,0,4.5,10.4v1.058a2.106,2.106,0,0,0,1.058,1.823v3.469H9.791v2.117h4.234V16.746h4.234V13.277a2.106,2.106,0,0,0,1.058-1.823V10.4A2.118,2.118,0,0,0,17.2,8.279ZM8.733,15.688H6.616V11.454H5.557V10.4A1.059,1.059,0,0,1,6.616,9.337H7.967A2.093,2.093,0,0,0,7.674,10.4v2.117a2.106,2.106,0,0,0,1.058,1.823v1.352Zm5.292-2.117V11.454H12.966V17.8H10.849V11.454H9.791v2.117a1.059,1.059,0,0,1-1.058-1.058V10.4A1.059,1.059,0,0,1,9.791,9.337h4.234A1.059,1.059,0,0,1,15.083,10.4v2.117a1.058,1.058,0,0,1-1.058,1.058Zm4.234-2.117H17.2v4.234H15.083V14.336a2.106,2.106,0,0,0,1.058-1.823V10.4a2.094,2.094,0,0,0-.294-1.058H17.2A1.059,1.059,0,0,1,18.259,10.4v1.058ZM9.521,7.177a3.136,3.136,0,0,0,4.773,0,2.114,2.114,0,1,0,.7-2.79,3.166,3.166,0,0,0-6.173,0,2.118,2.118,0,1,0,.7,2.79ZM16.142,5.1a1.058,1.058,0,1,1-1.058,1.058A1.058,1.058,0,0,1,16.142,5.1ZM11.908,2.986A2.117,2.117,0,1,1,9.791,5.1,2.118,2.118,0,0,1,11.908,2.986ZM7.674,7.22A1.058,1.058,0,1,1,8.733,6.162,1.058,1.058,0,0,1,7.674,7.22Z" transform="translate(-4.499 -1.928)" fill="#404040"/>
</svg>
