<svg xmlns="http://www.w3.org/2000/svg" width="4.609" height="7.374" viewBox="0 0 4.609 7.374">
  <path id="Icon_awesome-mobile-alt" data-name="Icon awesome-mobile-alt" d="M3.918,0H.691A.692.692,0,0,0,0,.691V6.683a.692.692,0,0,0,.691.691H3.918a.692.692,0,0,0,.691-.691V.691A.692.692,0,0,0,3.918,0ZM2.3,6.914a.461.461,0,1,1,.461-.461A.46.46,0,0,1,2.3,6.914ZM3.918,5.358a.173.173,0,0,1-.173.173H.864a.173.173,0,0,1-.173-.173V.864A.173.173,0,0,1,.864.691H3.745a.173.173,0,0,1,.173.173Z" fill="#707070"/>
</svg>
