<svg xmlns="http://www.w3.org/2000/svg" width="10.963" height="7.401" viewBox="0 0 10.963 7.401">
  <path id="Icon_zocial-email" data-name="Icon zocial-email" d="M.072,10.813V4.723q0-.011.032-.2L3.688,7.589.114,11.024a.9.9,0,0,1-.042-.211ZM.548,4.1a.456.456,0,0,1,.18-.032H10.38a.6.6,0,0,1,.19.032L6.976,7.176,6.5,7.557l-.941.772-.941-.772-.476-.381Zm.011,7.337L4.163,7.98l1.4,1.131,1.4-1.131,3.605,3.457a.508.508,0,0,1-.18.032H.727a.479.479,0,0,1-.169-.032ZM7.43,7.589,11,4.523a.631.631,0,0,1,.032.2v6.09a.81.81,0,0,1-.032.211Z" transform="translate(-0.072 -4.068)" fill="#404040"/>
</svg>
