<svg xmlns="http://www.w3.org/2000/svg" width="10.639" height="10.631" viewBox="0 0 10.639 10.631">
  <g id="telephone-2" transform="translate(0.249 0.25)">
    <path id="Path_1428" data-name="Path 1428" d="M2.957,6.734a10.748,10.748,0,0,0,3.575,2.8,5.564,5.564,0,0,0,2,.592c.048,0,.094,0,.143,0A1.657,1.657,0,0,0,9.96,9.579a.046.046,0,0,0,.008-.01,5.409,5.409,0,0,1,.405-.42c.1-.094.2-.193.3-.294a1.014,1.014,0,0,0,0-1.509L9.4,6.083a1.021,1.021,0,0,0-.739-.34,1.056,1.056,0,0,0-.747.338l-.752.752c-.069-.04-.141-.076-.208-.109A2.6,2.6,0,0,1,6.727,6.6a7.953,7.953,0,0,1-1.9-1.73,4.58,4.58,0,0,1-.642-1.024c.2-.178.382-.365.56-.548.063-.065.128-.13.193-.2a1.076,1.076,0,0,0,.348-.756,1.068,1.068,0,0,0-.348-.756L4.313.964C4.239.89,4.17.819,4.1.745,3.96.6,3.815.456,3.673.323A1.046,1.046,0,0,0,2.934,0a1.077,1.077,0,0,0-.747.325L1.4,1.11A1.613,1.613,0,0,0,.921,2.143a3.885,3.885,0,0,0,.292,1.679A9.77,9.77,0,0,0,2.957,6.734ZM1.433,2.187a1.11,1.11,0,0,1,.334-.714L2.547.693A.565.565,0,0,1,2.934.514.536.536,0,0,1,3.312.7c.141.13.273.267.416.411l.218.223.626.626a.57.57,0,0,1,.2.393.57.57,0,0,1-.2.393l-.2.2c-.2.2-.378.384-.579.563l-.01.01a.41.41,0,0,0-.1.466l.006.017a4.94,4.94,0,0,0,.737,1.2A8.394,8.394,0,0,0,6.448,7.036a3.005,3.005,0,0,0,.277.151,2.6,2.6,0,0,1,.231.126l.023.013a.439.439,0,0,0,.2.052A.445.445,0,0,0,7.5,7.236l.785-.785a.556.556,0,0,1,.384-.187.527.527,0,0,1,.372.187L10.3,7.714a.506.506,0,0,1-.006.791c-.088.094-.181.185-.279.279a6.046,6.046,0,0,0-.439.456,1.152,1.152,0,0,1-.9.382c-.036,0-.073,0-.109,0a5.055,5.055,0,0,1-1.809-.542,10.21,10.21,0,0,1-3.4-2.666A9.351,9.351,0,0,1,1.7,3.65,3.386,3.386,0,0,1,1.433,2.187Z" transform="translate(-0.912 0)" fill="#404040" stroke="#404040" stroke-width="0.5"/>
  </g>
</svg>
