<svg xmlns="http://www.w3.org/2000/svg" width="11.008" height="11.008" viewBox="0 0 11.008 11.008">
  <path id="Icon_simple-whatsapp" data-name="Icon simple-whatsapp" d="M8.026,6.6c-.138-.069-.81-.4-.936-.443s-.217-.069-.309.069-.354.442-.433.533-.16.1-.3.034a3.723,3.723,0,0,1-1.1-.681,4.161,4.161,0,0,1-.761-.949c-.08-.138-.009-.213.06-.282s.138-.158.207-.24a1.163,1.163,0,0,0,.136-.227.252.252,0,0,0-.011-.24c-.034-.069-.308-.743-.423-1.012s-.223-.234-.308-.234-.17-.007-.262-.007a.517.517,0,0,0-.366.165,1.531,1.531,0,0,0-.479,1.135A2.684,2.684,0,0,0,3.3,5.627,6.116,6.116,0,0,0,5.64,7.684c.327.138.583.22.782.289a1.9,1.9,0,0,0,.862.055,1.412,1.412,0,0,0,.925-.654,1.135,1.135,0,0,0,.083-.654c-.034-.062-.124-.1-.261-.158m-2.5,3.414H5.525a4.588,4.588,0,0,1-2.319-.633l-.165-.1-1.72.447L1.782,8.02l-.11-.172A4.549,4.549,0,0,1,8.757,2.236a4.489,4.489,0,0,1,1.334,3.206A4.555,4.555,0,0,1,5.535,9.976M9.412,1.582A5.569,5.569,0,0,0,5.525,0,5.453,5.453,0,0,0,.778,8.182L0,11.008l2.906-.758a5.533,5.533,0,0,0,2.619.664h0a5.477,5.477,0,0,0,5.481-5.456A5.41,5.41,0,0,0,9.4,1.6" fill="#404040"/>
</svg>
