<svg id="Group_7678" data-name="Group 7678" xmlns="http://www.w3.org/2000/svg" xmlns:xlink="http://www.w3.org/1999/xlink" width="12" height="15.274" viewBox="0 0 12 15.274">
  <defs>
    <clipPath id="clip-path">
      <rect id="Rectangle_3701" data-name="Rectangle 3701" width="12" height="15.274" fill="#c8940a"/>
    </clipPath>
  </defs>
  <g id="Group_7677" data-name="Group 7677" clip-path="url(#clip-path)">
    <path id="Path_5954" data-name="Path 5954" d="M2.534,4.365c-.147-.136-.286-.254-.413-.383a1.587,1.587,0,0,1-.483-1.177A6.916,6.916,0,0,1,1.669,1.9,1.53,1.53,0,0,1,2.59.7.2.2,0,0,0,2.734.5.52.52,0,0,1,3.277,0Q6.005,0,8.733,0a.539.539,0,0,1,.544.507A.252.252,0,0,0,9.389.68a1.622,1.622,0,0,1,.977,1.568c0,.188,0,.376,0,.564a1.575,1.575,0,0,1-.453,1.116c-.138.143-.288.274-.441.419a5.974,5.974,0,0,1,2.52,5.268A5.732,5.732,0,0,1,10.1,13.657,6,6,0,1,1,2.534,4.365m6.192.789c-.05.044-.088.075-.121.109-.527.528-1.057,1.052-1.577,1.586a.734.734,0,0,1-.6.247,8.618,8.618,0,0,0-.873,0,.745.745,0,0,1-.612-.252C4.439,6.323,3.918,5.815,3.41,5.295c-.1-.1-.164-.1-.27-.022A4.828,4.828,0,0,0,1.122,9.883a4.936,4.936,0,1,0,7.6-4.73M6,1.63c-.9,0-1.794,0-2.691,0a.548.548,0,0,0-.588.592c0,.176.005.352,0,.527a.659.659,0,0,0,.214.518Q4.2,4.531,5.467,5.8a.739.739,0,0,0,1.07,0Q7.632,4.706,8.723,3.612c.654-.655.552-.452.558-1.355a.556.556,0,0,0-.626-.626q-1.327,0-2.655,0" transform="translate(0 0)" fill="#c8940a"/>
  </g>
</svg>
