<svg xmlns="http://www.w3.org/2000/svg" width="39.636" height="39.733" viewBox="0 0 39.636 39.733">
  <g id="Group_7702" data-name="Group 7702" transform="translate(0 0)">
    <path id="Path_1229" data-name="Path 1229" d="M8.093,39.732a13.573,13.573,0,0,1-1.666-.482,5.8,5.8,0,0,1-2.58-8.523c.054-.083.106-.168.189-.3H.544c.143-.132.218-.207.3-.276,1.234-1.043,2.544-2.008,3.686-3.142a14,14,0,0,0,4.105-8.367,8.03,8.03,0,0,1,6.4-6.878,8.629,8.629,0,0,1,1.465-.12c1.008-.018,2.016-.005,3.032-.03a5.928,5.928,0,0,1-3.886-2.387,5.67,5.67,0,0,1-1.02-4.447,5.821,5.821,0,0,1,11.532.586,5.926,5.926,0,0,1-4.967,6.273c.581,0,1.164-.021,1.744,0a16.346,16.346,0,0,1,3.083.209,7.741,7.741,0,0,1,5.891,6c.28,1.045.373,2.142.681,3.177a14.921,14.921,0,0,0,5.341,7.573c.73.571,1.45,1.156,2.248,1.794H36.689a2.749,2.749,0,0,0,.132.27,5.81,5.81,0,0,1-3.955,8.993.856.856,0,0,0-.173.069ZM25.574,18.208c.55,1.17,1.038,2.223,1.538,3.271a11.541,11.541,0,0,0,5.74,5.742c.143.065.292.12.484.2a.862.862,0,0,0-.055-.144,17.824,17.824,0,0,1-3.575-8.544,5.507,5.507,0,0,0-5.615-4.776q-3.742.084-7.486,0a5.577,5.577,0,0,0-5.633,4.9,17.2,17.2,0,0,1-3.319,8.119c-.112.148-.222.3-.345.464.064.005.092.016.113.008a10.962,10.962,0,0,0,6.438-5.54q.646-1.344,1.291-2.689c.044-.091.1-.173.2-.33.31,1.819.6,3.537.9,5.256q.637,3.743,1.269,7.487a.6.6,0,0,0,.36.492c.749.38,1.489.776,2.223,1.183a.481.481,0,0,0,.53,0c.735-.4,1.475-.8,2.223-1.183a.615.615,0,0,0,.36-.5q.819-4.695,1.652-9.387c.231-1.309.465-2.617.717-4.035m-7.48,19.119.03.07c4.694,0,9.389.044,14.083-.018a3.457,3.457,0,0,0,2.936-4.969A3.218,3.218,0,0,0,30.9,30.758c-.322.132-.649.258-.959.417q-4.76,2.433-9.513,4.88c-.787.406-1.556.848-2.333,1.273m-.184-2.556c-.835-.44-1.577-.858-2.341-1.229-1.983-.964-3.969-1.923-5.97-2.848a2.563,2.563,0,0,0-1.231-.243,3.464,3.464,0,0,0-3.142,3.282,3.4,3.4,0,0,0,2.868,3.585c1.028.142,2.091.015,3.13.1a5.407,5.407,0,0,0,3.474-.868c1.007-.641,2.09-1.164,3.212-1.779M23.845,5.82A3.491,3.491,0,1,0,20.334,9.31,3.5,3.5,0,0,0,23.845,5.82M30.27,28.47a14.534,14.534,0,0,1-3.578-3.232l-.942,5.333,4.52-2.1M14.976,30.584l-.807-4.737L10.741,28.6l4.235,1.983" transform="translate(-0.544 0.001)" fill="#fe9a01"/>
  </g>
</svg>
