<svg id="Group_7663" data-name="Group 7663" xmlns="http://www.w3.org/2000/svg" xmlns:xlink="http://www.w3.org/1999/xlink" width="48" height="37.41" viewBox="0 0 48 37.41">
  <defs>
    <clipPath id="clip-path">
      <rect id="Rectangle_3698" data-name="Rectangle 3698" width="48" height="37.41" fill="#fe9a01"/>
    </clipPath>
  </defs>
  <g id="Group_7662" data-name="Group 7662" clip-path="url(#clip-path)">
    <path id="Path_5952" data-name="Path 5952" d="M46.8,34.469a1,1,0,0,1,0-.67c.329-.826.7-1.634,1.057-2.451.047-.108.077-.224.147-.434H41.91l-.01-.134c.185-.036.374-.06.555-.112.275-.079.52-.242.5-.549-.013-.248-.069-.6-.234-.706a1.047,1.047,0,0,0-.778.017,3.156,3.156,0,0,0-.694.477,8.607,8.607,0,0,0-.668-.707c-.337-.287-.336-.546-.14-.942A17.9,17.9,0,0,0,42.2,17.842,18.3,18.3,0,0,0,34.319,4.784,18.145,18.145,0,0,0,26.1,1.611c-.233-.031-.449,0-.5.26-.057.3.157.381.406.418.391.057.782.116,1.17.193a17.979,17.979,0,0,1,12.8,25.2c-.074.159-.162.311-.272.518a4.19,4.19,0,0,0-.372-.439.688.688,0,0,1-.142-.926,16.062,16.062,0,0,0,1.178-9.526A16.332,16.332,0,0,0,28.939,4.026c-.2-.069-.51-.289-.616.045s.275.327.478.391a15.331,15.331,0,0,1,7.231,4.692,16.278,16.278,0,0,1,3.413,15.652c-.193.713-.5,1.4-.765,2.136a2.454,2.454,0,0,1-.238-.182,2.37,2.37,0,0,1-.248-.289,8.836,8.836,0,0,1-1.557-4.507,1.517,1.517,0,0,0-1.2-1.628c-.437-.136-.9-.171-1.347-.289a.754.754,0,0,1-.4-1.306c.139-.161.346-.277.445-.456a3.743,3.743,0,0,0,.3-.823.934.934,0,0,0-.016-.4c-.047-.245-.136-.482-.168-.728a2.019,2.019,0,0,0-.771-1.623c-.076-.05-.092-.24-.082-.362a.933.933,0,1,0-1.852-.045.639.639,0,0,1-.191.446,1.723,1.723,0,0,0-.652,1.1c-.075.469-.136.94-.194,1.411a.745.745,0,0,0,.047.245c.067.28.144.558.2.84.042.213.057.432.083.649l.083-.007.065-.808c.231.3.428.535.605.787a.707.707,0,0,1-.427,1.09c-.276.058-.556.1-.834.143a1.523,1.523,0,0,0-1.273,1.378,8.583,8.583,0,0,1-1.407,4.511,22.878,22.878,0,0,1-1.628,1.962,14.885,14.885,0,0,1,.17-2.1,58.976,58.976,0,0,1,.978-7.289,2.87,2.87,0,0,0-.728-2.981,2.011,2.011,0,0,1-.325-.494,5.121,5.121,0,0,1-.253-3.872.583.583,0,0,1,.184-.274c.482-.417.647-.886.329-1.335a9.916,9.916,0,0,0,.649-1.583c.244-1.144.43-2.3.575-3.463a1.361,1.361,0,0,0-.29-.891,4.677,4.677,0,0,0-.986-.919c-.584-.42-1.2-.8-1.815-1.173a.624.624,0,0,1-.351-.648A2.525,2.525,0,0,0,24.058.2a.344.344,0,0,0-.632.012,2.677,2.677,0,0,0-.136.871.632.632,0,0,1-.329.619c-.853.6-1.7,1.219-2.537,1.838a1.337,1.337,0,0,0-.483,1.473c.12.608.2,1.225.3,1.836a4.68,4.68,0,0,0,.851,2.613.335.335,0,0,1,.039.271,1.28,1.28,0,0,0,.356,1.2,1.249,1.249,0,0,1,.272.413,8.4,8.4,0,0,1,.343,3.1,2.748,2.748,0,0,1-1.53,2.371,15.731,15.731,0,0,0-3.713,2.65,1.159,1.159,0,0,0,.044,1.992c1.108.826,2.254,1.6,3.381,2.4.562.4,1.135.787,1.67,1.22a16.229,16.229,0,0,1,1.259,1.179c.3.306.763.609.828.971a13.055,13.055,0,0,1,.039,2.26c-.854-.38-1.138-.372-1.32.031-.239.528-.013.842.916,1.2-.222.186-.4.448-.618.5a20.131,20.131,0,0,1-2.129.34.822.822,0,0,1-.621-.135,7.069,7.069,0,0,0-2.063-1.464,1.256,1.256,0,0,1-.791-1,1.9,1.9,0,0,0-.28-.657,2.826,2.826,0,0,0-1.756-1.375,1.09,1.09,0,0,1-.89-1.09,8.7,8.7,0,0,1,.134-1.929c.2-.964.527-1.9.785-2.857a1.1,1.1,0,0,0,.034-.579,12.377,12.377,0,0,1-.375-3.777,2.386,2.386,0,0,1,.106-.53c.079-.34.153-.682.25-1.017a.656.656,0,0,1,.2-.36,1.092,1.092,0,0,0,.191-1.89.4.4,0,0,1-.123-.281c.258-1.618.467-3.258,1.774-4.46A.656.656,0,0,0,17.6,8c-.05-.02-.087-.046-.1-.038-.316.254-.761.237-1.076.561-.113.117-.383.165-.486.386-.233.5-.48.992-.7,1.5-.4.915-.792,1.835-1.2,2.784-.138-.037-.285-.08-.433-.114a1.508,1.508,0,0,0-1.363.261c-.341.278-.7.554-.514,1.091.021.062-.065.154-.079.236-.026.15-.033.3-.051.454-.036.311-.073.622-.112.932-.011.091-.068.248-.042.263.407.228.324.7.527,1.018a.618.618,0,0,0,.4.285c.364.01.45.216.491.509a1.045,1.045,0,0,1-.366.991c-.455.377-.937.722-1.423,1.058-.912.632-.969.914-.356,1.822a6.781,6.781,0,0,1,.565.943,3.179,3.179,0,0,1,.295.964c.136,1.277.226,2.558.356,3.836.028.276-.082.367-.305.457a9.892,9.892,0,0,0-1.307.6c-.343.2-.5.123-.687-.2a15.775,15.775,0,0,1-2.13-11.161C8.675,11.067,12.406,6.781,18.465,4.517c.2-.076.584-.071.474-.4s-.419-.1-.622-.034a16.066,16.066,0,0,0-7.47,5.085A16.557,16.557,0,0,0,8.115,26.573c.351.916.861,1.772,1.316,2.695l-.8.53c-.1-.152-.194-.272-.271-.4A17.954,17.954,0,0,1,19.709,2.6c.6-.136,1.221-.221,1.833-.326.23-.039.433-.124.4-.395s-.249-.315-.483-.294c-.042,0-.084.01-.126.016A17.965,17.965,0,0,0,9.58,7.989C4.783,13.8,3.827,20.3,6.545,27.322c.385.994.944,1.92,1.433,2.9a2.3,2.3,0,0,1-1.723.733c-1.906-.062-3.815-.021-5.723-.018-.161,0-.323.025-.533.042.071.187.116.317.17.443.327.751.643,1.507.993,2.248a1,1,0,0,1,0,.922c-.354.769-.676,1.554-1.008,2.334-.057.134-.1.276-.154.45.175.014.285.03.395.03,1.328,0,2.657-.009,3.985.008.207,0,.33-.037.4-.14.072.08.2.109.412.109,2.913,0,5.826.023,8.739.028q5.15.009,10.3,0H43.185c.134,0,.237,0,.318-.006a1.09,1.09,0,0,0,.128.006c1.328-.014,2.657,0,3.985-.008a3.351,3.351,0,0,0,.367-.045c-.076-.208-.131-.379-.2-.545-.33-.78-.68-1.553-.985-2.343m-8.54-5.763a4.109,4.109,0,0,1,.706.777c.05.093-.2.447-.382.545-.4.215-.6-.209-.919-.4l.595-.922M35.1,27.689a22.362,22.362,0,0,1,.278-2.3,1.674,1.674,0,0,1,.219-.454l.124.01a12.629,12.629,0,0,1,.521,1.18,3.6,3.6,0,0,0,1.3,1.969c.275.191.32.389.107.7-.45.651-.43.664-1.218.519-1.339-.248-1.387-.271-1.333-1.621m-7.432.751c.1-.082.188-.17.287-.249a4.16,4.16,0,0,0,1.509-2.231,5.765,5.765,0,0,1,.341-.795l.138.01c.1.73.248,1.457.279,2.19a9.692,9.692,0,0,1-.16,1.759.463.463,0,0,1-.3.321c-1.121.071-2.244.11-3.461.162l1.365-1.167M21.509,6.78A18.542,18.542,0,0,1,21.08,4.5c-.022-.157.157-.381.3-.514.774-.72,1.565-1.421,2.43-2.2.695.653,1.4,1.314,2.1,1.977a1.829,1.829,0,0,1,.4,1.844c-.108.536-.309,1.054-.454,1.583a.364.364,0,0,1-.463.3c-.1-.015-.2-.012-.292-.032-.278-.056-.568-.1-.661-.437s.133-.543.309-.782c.258-.352.53-.7.32-1.2-.09-.213-.042-.483-.123-.7a9.277,9.277,0,0,0-.428-.844,1.18,1.18,0,0,1-.152-.4.709.709,0,0,0-.7-.736.745.745,0,0,0-.686.77.9.9,0,0,1-.15.342,4.3,4.3,0,0,0-.47.862,3.647,3.647,0,0,0,.177,2.193l.048-.434a6.393,6.393,0,0,1,.473.6.559.559,0,0,1-.308.723c-.79.265-1.019.181-1.236-.63M24.083,26.35l-.15.036c-.176-.551-.38-1.1-.518-1.656-.105-.428-.281-.607-.715-.6A.53.53,0,0,1,22.341,24c-.833-.881-1.654-1.774-2.477-2.664-.256-.277-.51-.556-.793-.864l5.052-2.482c.18,2.88-.067,5.618-.039,8.357M13.457,30.109A10.576,10.576,0,0,0,15.728,31.9h-.306l-.567-.452a.775.775,0,0,0-1.041.008.48.48,0,0,1-.3.119c-.519-.093-1.034-.212-1.65-.343l1.588-1.117" transform="translate(0 0)" fill="#fe9a01"/>
  </g>
</svg>
