<svg xmlns="http://www.w3.org/2000/svg" width="18.518" height="20.386" viewBox="0 0 18.518 20.386">
  <g id="Group_7767" data-name="Group 7767" transform="translate(-337.241 -47.25)">
    <path id="Subtraction_1" data-name="Subtraction 1" d="M-1249.742,20.386a2.647,2.647,0,0,1-2.282-1.315.744.744,0,0,1-.076-.569.747.747,0,0,1,.349-.456.751.751,0,0,1,.376-.1.752.752,0,0,1,.649.373,1.141,1.141,0,0,0,.985.568,1.144,1.144,0,0,0,.985-.568.752.752,0,0,1,.649-.373.751.751,0,0,1,.376.1.751.751,0,0,1,.273,1.025A2.648,2.648,0,0,1-1249.742,20.386Zm8.5-4.72h-17a.756.756,0,0,1-.728-.536.737.737,0,0,1,.308-.834,4.868,4.868,0,0,0,1.238-1.621,11.927,11.927,0,0,0,1.186-4.458,3.959,3.959,0,0,0,1.457.5,12.047,12.047,0,0,1-1.791,5.453h13.659c-.873-1.3-1.913-3.7-1.913-7.75a4.922,4.922,0,0,0-4.917-4.917,4.884,4.884,0,0,0-1.767.328,4.018,4.018,0,0,0-1.552-.9A6.4,6.4,0,0,1-1249.742,0a6.424,6.424,0,0,1,6.417,6.417,13.4,13.4,0,0,0,1.265,6.258,4.873,4.873,0,0,0,1.238,1.621.737.737,0,0,1,.308.834A.756.756,0,0,1-1241.241,15.666Z" transform="translate(1596.241 47.25)" fill="#fff"/>
    <circle id="Ellipse_52" data-name="Ellipse 52" cx="3" cy="3" r="3" transform="translate(339 49)" fill="#fe0"/>
  </g>
</svg>
