<svg xmlns="http://www.w3.org/2000/svg" width="17" height="19.429" viewBox="0 0 17 19.429">
  <path id="Icon_metro-organization" data-name="Icon metro-organization" d="M19.07,9.214H6.927A2.429,2.429,0,0,0,4.5,11.642v1.214a2.417,2.417,0,0,0,1.214,2.092v3.98H10.57v2.429h4.857V18.928h4.857v-3.98A2.416,2.416,0,0,0,21.5,12.857V11.642A2.43,2.43,0,0,0,19.07,9.214Zm-9.714,8.5H6.927V12.857H5.713V11.642a1.215,1.215,0,0,1,1.214-1.214h1.55a2.4,2.4,0,0,0-.336,1.214v2.429a2.417,2.417,0,0,0,1.214,2.092v1.551Zm6.071-2.429V12.857H14.213v7.286H11.784V12.857H10.57v2.429a1.214,1.214,0,0,1-1.214-1.214V11.642a1.215,1.215,0,0,1,1.214-1.214h4.857a1.214,1.214,0,0,1,1.214,1.214v2.429a1.214,1.214,0,0,1-1.214,1.214Zm4.857-2.429H19.07v4.857H16.642V16.163a2.416,2.416,0,0,0,1.214-2.092V11.642a2.4,2.4,0,0,0-.337-1.214H19.07a1.214,1.214,0,0,1,1.214,1.214v1.214ZM10.261,7.95a3.6,3.6,0,0,0,5.476,0,2.425,2.425,0,1,0,.8-3.2,3.633,3.633,0,0,0-7.082,0,2.43,2.43,0,1,0,.8,3.2Zm7.6-2.379a1.214,1.214,0,1,1-1.214,1.214A1.213,1.213,0,0,1,17.856,5.571ZM13,3.142A2.429,2.429,0,1,1,10.57,5.571,2.43,2.43,0,0,1,13,3.142ZM8.142,8A1.214,1.214,0,1,1,9.356,6.785,1.214,1.214,0,0,1,8.142,8Z" transform="translate(-4.499 -1.928)" fill="#c8940a"/>
</svg>
